<svg xmlns="http://www.w3.org/2000/svg" viewBox="0 0 24 24" width="24" height="24" preserveAspectRatio="xMidYMid meet" style="width: 100%; height: 100%; transform: translate3d(0px, 0px, 0px);"><defs><clipPath id="__lottie_element_145"><rect width="24" height="24" x="0" y="0"></rect></clipPath></defs><g clip-path="url(#__lottie_element_145)"><g transform="matrix(1,0,0,1,0,0)" opacity="1" style="display: block;"><g opacity="1" transform="matrix(1,0,0,1,3,3)"><path fill="rgb(0,0,0)" fill-opacity="1" d=" M-3,3 C-3,3 3,3 3,3 C3,3 3,-3 3,-3 C3,-3 -3,-3 -3,-3 C-3,-3 -3,3 -3,3z"></path></g><g opacity="1" transform="matrix(1,0,0,1,0,0)"><g opacity="1" transform="matrix(1,0,0,1,9,3)"><path fill="rgb(0,0,0)" fill-opacity="1" d=" M-2.999000072479248,3 C-2.999000072479248,3 2.999000072479248,3 2.999000072479248,3 C2.999000072479248,3 2.999000072479248,-3 2.999000072479248,-3 C2.999000072479248,-3 -2.999000072479248,-3 -2.999000072479248,-3 C-2.999000072479248,-3 -2.999000072479248,3 -2.999000072479248,3z"></path></g><g opacity="1" transform="matrix(1,0,0,1,3,9)"><path fill="rgb(0,0,0)" fill-opacity="1" d=" M-3,3 C-3,3 3,3 3,3 C3,3 3,-3 3,-3 C3,-3 -3,-3 -3,-3 C-3,-3 -3,3 -3,3z"></path></g></g><g opacity="1" transform="matrix(1,0,0,1,0,0)"><g opacity="1" transform="matrix(1,0,0,1,15,3)"><path fill="rgb(0,0,0)" fill-opacity="1" d=" M-3,3 C-3,3 3,3 3,3 C3,3 3,-3 3,-3 C3,-3 -3,-3 -3,-3 C-3,-3 -3,3 -3,3z"></path></g><g opacity="1" transform="matrix(1,0,0,1,9,9)"><path fill="rgb(0,0,0)" fill-opacity="1" d=" M3,3 C3,3 -3,3 -3,3 C-3,3 -3,-3 -3,-3 C-3,-3 3,-3 3,-3 C3,-3 3,3 3,3z"></path></g><g opacity="1" transform="matrix(1,0,0,1,3,15)"><path fill="rgb(0,0,0)" fill-opacity="1" d=" M-3,2.999000072479248 C-3,2.999000072479248 3,2.999000072479248 3,2.999000072479248 C3,2.999000072479248 3,-2.999000072479248 3,-2.999000072479248 C3,-2.999000072479248 -3,-2.999000072479248 -3,-2.999000072479248 C-3,-2.999000072479248 -3,2.999000072479248 -3,2.999000072479248z"></path></g></g><g opacity="1" transform="matrix(1,0,0,1,0,0)"><g opacity="1" transform="matrix(0.873393177986145,0,0,0.873393177986145,21,3)"><path fill="rgb(0,0,0)" fill-opacity="1" d=" M-3,3 C-3,3 3,3 3,3 C3,3 3,-3 3,-3 C3,-3 -3,-3 -3,-3 C-3,-3 -3,3 -3,3z"></path></g><g opacity="1" transform="matrix(0.873393177986145,0,0,0.873393177986145,15,9)"><path fill="rgb(0,0,0)" fill-opacity="1" d=" M3,3 C3,3 -3,3 -3,3 C-3,3 -3,-3 -3,-3 C-3,-3 3,-3 3,-3 C3,-3 3,3 3,3z"></path></g><g opacity="1" transform="matrix(0.873393177986145,0,0,0.873393177986145,9,15)"><path fill="rgb(0,0,0)" fill-opacity="1" d=" M3,3 C3,3 -3,3 -3,3 C-3,3 -3,-3 -3,-3 C-3,-3 3,-3 3,-3 C3,-3 3,3 3,3z"></path></g><g opacity="1" transform="matrix(0.873393177986145,0,0,0.873393177986145,3,21)"><path fill="rgb(0,0,0)" fill-opacity="1" d=" M-3,3 C-3,3 3,3 3,3 C3,3 3,-3 3,-3 C3,-3 -3,-3 -3,-3 C-3,-3 -3,3 -3,3z"></path></g></g><g opacity="1" transform="matrix(1,0,0,1,0,0)"><g opacity="1" transform="matrix(0.46626266837120056,0,0,0.46626266837120056,21,9)"><path fill="rgb(0,0,0)" fill-opacity="1" d=" M-3,3 C-3,3 3,3 3,3 C3,3 3,-3 3,-3 C3,-3 -3,-3 -3,-3 C-3,-3 -3,3 -3,3z"></path></g><g opacity="1" transform="matrix(0.46626266837120056,0,0,0.46626266837120056,15,15)"><path fill="rgb(0,0,0)" fill-opacity="1" d=" M3,3 C3,3 -3,3 -3,3 C-3,3 -3,-3 -3,-3 C-3,-3 3,-3 3,-3 C3,-3 3,3 3,3z"></path></g><g opacity="1" transform="matrix(0.46626266837120056,0,0,0.46626266837120056,9,21)"><path fill="rgb(0,0,0)" fill-opacity="1" d=" M-2.999000072479248,3 C-2.999000072479248,3 2.999000072479248,3 2.999000072479248,3 C2.999000072479248,3 2.999000072479248,-3 2.999000072479248,-3 C2.999000072479248,-3 -2.999000072479248,-3 -2.999000072479248,-3 C-2.999000072479248,-3 -2.999000072479248,3 -2.999000072479248,3z"></path></g></g><g opacity="1" transform="matrix(1,0,0,1,0,0)"><g opacity="1" transform="matrix(0.08340077102184296,0,0,0.08340077102184296,21,15)"><path fill="rgb(0,0,0)" fill-opacity="1" d=" M-3,2.999000072479248 C-3,2.999000072479248 3,2.999000072479248 3,2.999000072479248 C3,2.999000072479248 3,-2.999000072479248 3,-2.999000072479248 C3,-2.999000072479248 -3,-2.999000072479248 -3,-2.999000072479248 C-3,-2.999000072479248 -3,2.999000072479248 -3,2.999000072479248z"></path></g><g opacity="1" transform="matrix(0.08340077102184296,0,0,0.08340077102184296,15,21)"><path fill="rgb(0,0,0)" fill-opacity="1" d=" M-3,3 C-3,3 3,3 3,3 C3,3 3,-3 3,-3 C3,-3 -3,-3 -3,-3 C-3,-3 -3,3 -3,3z"></path></g></g><g opacity="1" transform="matrix(0,0,0,0,21,21)"><path fill="rgb(0,0,0)" fill-opacity="1" d=" M-3,3 C-3,3 3,3 3,3 C3,3 3,-3 3,-3 C3,-3 -3,-3 -3,-3 C-3,-3 -3,3 -3,3z"></path></g></g></g></svg>