<svg width="181" height="128" viewBox="0 0 181 128" fill="none" xmlns="http://www.w3.org/2000/svg">
<path d="M136.101 116.774L156.818 34.3561L15.6239 11.966L47.6987 116.774H136.101Z" stroke="#EEC453" stroke-width="10" stroke-linejoin="round"/>
<path d="M10.7148 48.5481C10.3148 46.9957 11.206 45.4031 12.7384 44.932L152.886 1.84619C155.125 1.15765 157.254 3.18753 156.673 5.45749L126.077 125.018C125.738 126.345 124.541 127.274 123.171 127.274H33.325C31.9564 127.274 30.7614 126.348 30.4199 125.022L10.7148 48.5481Z" fill="#9FCDAD"/>
<circle cx="50" cy="54.7738" r="30" fill="#FFFBE5"/>
<g filter="url(#filter0_d_17_13)">
<path d="M18.536 79.612C17.36 79.612 16.448 79.336 15.8 78.784C15.176 78.232 14.864 77.512 14.864 76.624C14.864 76.096 14.996 75.508 15.26 74.86C15.932 75.724 16.736 76.156 17.672 76.156C18.872 76.156 19.76 75.52 20.336 74.248C20.936 72.952 21.236 71.488 21.236 69.856C21.236 66.904 20.096 65.428 17.816 65.428C17.168 65.428 16.592 65.548 16.088 65.788L13.244 79H8.06L13.244 54.952C11.732 55 10.568 55.576 9.752 56.68C8.96 57.784 8.564 59.692 8.564 62.404C8.564 63.292 8.648 63.916 8.816 64.276C8.984 64.612 9.068 64.804 9.068 64.852C7.772 64.852 6.8 64.588 6.152 64.06C5.528 63.508 5.216 62.608 5.216 61.36C5.216 59.656 5.636 58.108 6.476 56.716C7.316 55.3 8.648 54.16 10.472 53.296C12.32 52.432 14.66 52 17.492 52C18.044 52 18.896 52.06 20.048 52.18C22.232 52.348 23.732 52.432 24.548 52.432C25.82 52.432 26.9 52.288 27.788 52C27.764 52.12 27.68 52.6 27.536 53.44C27.392 54.28 27.044 54.976 26.492 55.528C25.964 56.056 25.256 56.32 24.368 56.32C22.616 56.32 20.588 56.08 18.284 55.6L16.484 63.952C17.9 63.52 19.124 63.304 20.156 63.304C22.172 63.304 23.684 63.916 24.692 65.14C25.724 66.34 26.24 67.948 26.24 69.964C26.24 71.284 25.952 72.7 25.376 74.212C24.824 75.7 23.972 76.972 22.82 78.028C21.668 79.084 20.24 79.612 18.536 79.612ZM33.573 88C32.421 88 31.461 87.7 30.693 87.1C29.925 86.5 29.541 85.636 29.541 84.508C29.541 83.14 30.093 82.036 31.197 81.196C32.301 80.38 33.705 79.696 35.409 79.144L35.841 77.2C35.145 77.968 34.437 78.496 33.717 78.784C32.997 79.072 32.265 79.216 31.521 79.216C30.369 79.216 29.433 78.856 28.713 78.136C28.017 77.416 27.669 76.336 27.669 74.896C27.669 74.296 27.765 73.516 27.957 72.556L30.405 61H35.589L32.997 73.24C32.925 73.528 32.889 73.828 32.889 74.14C32.889 75.196 33.249 75.724 33.969 75.724C34.593 75.724 35.145 75.46 35.625 74.932C36.105 74.38 36.489 73.66 36.777 72.772L39.297 61H44.481L40.917 77.704C42.069 77.32 42.993 76.744 43.689 75.976C44.385 75.208 44.973 74.068 45.453 72.556H46.965C46.317 74.692 45.441 76.264 44.337 77.272C43.233 78.256 41.985 78.928 40.593 79.288L40.053 81.88C39.573 84.208 38.745 85.804 37.569 86.668C36.393 87.556 35.061 88 33.573 88ZM32.745 85.192C33.153 85.192 33.549 84.916 33.933 84.364C34.317 83.812 34.617 83.02 34.833 81.988L35.049 80.944C32.697 81.808 31.521 82.828 31.521 84.004C31.521 84.316 31.629 84.592 31.845 84.832C32.061 85.072 32.361 85.192 32.745 85.192ZM76.7488 72.556C75.2368 76.996 73.0048 79.216 70.0528 79.216C68.6848 79.216 67.6288 78.856 66.8848 78.136C66.1648 77.392 65.8048 76.48 65.8048 75.4C65.8048 74.464 66.0568 72.868 66.5608 70.612L67.6048 65.932L61.0888 79H56.8408L55.8688 63.916C55.4368 64.42 55.0528 65.152 54.7168 66.112C54.3808 67.048 54.0568 68.32 53.7448 69.928C53.2888 72.28 52.8688 74.08 52.4848 75.328C52.1248 76.576 51.6088 77.536 50.9368 78.208C50.2888 78.88 49.4128 79.216 48.3088 79.216C47.0128 79.216 45.9928 78.82 45.2488 78.028C44.4808 77.212 44.0968 76.228 44.0968 75.076C44.0968 74.26 44.2888 73.612 44.6728 73.132C45.0568 72.628 45.5848 72.376 46.2568 72.376C46.8328 72.376 47.3008 72.556 47.6608 72.916C48.0208 73.276 48.2008 73.708 48.2008 74.212C48.2008 74.788 48.0568 75.232 47.7688 75.544C47.4808 75.832 47.1448 75.952 46.7608 75.904C46.7608 76.816 47.2288 77.272 48.1648 77.272C48.8368 77.272 49.3888 77.032 49.8208 76.552C50.2528 76.048 50.6248 75.232 50.9368 74.104C51.2728 72.976 51.6328 71.344 52.0168 69.208C52.5448 66.16 53.3368 64.036 54.3928 62.836C55.4728 61.612 56.8768 61 58.6048 61H60.2248L60.9088 74.824L67.7128 61H73.5448L71.6368 69.928C71.3968 70.96 71.1928 71.86 71.0248 72.628C70.8568 73.396 70.7728 73.924 70.7728 74.212C70.7728 75.22 71.2528 75.724 72.2128 75.724C72.8848 75.724 73.4248 75.496 73.8328 75.04C74.2408 74.584 74.7088 73.756 75.2368 72.556H76.7488ZM79.5622 79.216C78.1942 79.216 77.0542 78.748 76.1422 77.812C75.2302 76.876 74.7742 75.412 74.7742 73.42C74.7742 71.644 75.1222 69.784 75.8182 67.84C76.5382 65.872 77.5942 64.216 78.9862 62.872C80.4022 61.504 82.0822 60.82 84.0262 60.82C85.0102 60.82 85.7422 60.988 86.2222 61.324C86.7022 61.66 86.9422 62.104 86.9422 62.656V62.908L87.3382 61H92.5222L89.9302 73.24C89.8342 73.6 89.7862 73.984 89.7862 74.392C89.7862 75.424 90.2782 75.94 91.2622 75.94C91.9342 75.94 92.5102 75.628 92.9902 75.004C93.4942 74.38 93.8902 73.564 94.1782 72.556H95.6902C94.8022 75.148 93.6982 76.912 92.3782 77.848C91.0822 78.76 89.7742 79.216 88.4542 79.216C87.4462 79.216 86.6302 78.94 86.0062 78.388C85.4062 77.812 85.0462 76.984 84.9262 75.904C84.2302 76.888 83.4502 77.692 82.5862 78.316C81.7462 78.916 80.7382 79.216 79.5622 79.216ZM81.9022 75.724C82.5022 75.724 83.0902 75.448 83.6662 74.896C84.2662 74.32 84.6742 73.54 84.8902 72.556L86.6182 64.42C86.6182 64.108 86.4982 63.808 86.2582 63.52C86.0182 63.208 85.6462 63.052 85.1422 63.052C84.1822 63.052 83.3182 63.616 82.5502 64.744C81.7822 65.848 81.1822 67.192 80.7502 68.776C80.3182 70.336 80.1022 71.716 80.1022 72.916C80.1022 74.116 80.2702 74.884 80.6062 75.22C80.9662 75.556 81.3982 75.724 81.9022 75.724ZM97.1434 79.216C95.6554 79.216 94.5754 78.856 93.9034 78.136C93.2074 77.392 92.8594 76.48 92.8594 75.4C92.8594 74.44 93.0634 73.696 93.4714 73.168C93.8794 72.64 94.3834 72.376 94.9834 72.376C95.5114 72.376 95.9434 72.544 96.2794 72.88C95.9674 73.72 95.8114 74.512 95.8114 75.256C95.8114 75.952 95.9434 76.468 96.2074 76.804C96.4714 77.14 96.7714 77.308 97.1074 77.308C97.7554 77.308 98.3794 76.768 98.9794 75.688C99.5794 74.608 100.071 73.264 100.455 71.656C100.839 70.048 101.031 68.536 101.031 67.12C101.031 64.6 100.299 63.34 98.8354 63.34C98.1634 63.34 97.6234 63.556 97.2154 63.988C96.8074 64.42 96.4234 65.104 96.0634 66.04H94.1914C94.7194 64.288 95.4394 62.956 96.3514 62.044C97.2874 61.132 98.5594 60.676 100.167 60.676C101.799 60.676 103.083 61.192 104.019 62.224C104.955 63.256 105.423 64.648 105.423 66.4C105.423 66.976 105.387 67.576 105.315 68.2H107.475L108.987 61H113.811L112.299 68.2H114.315C114.963 66.016 115.899 64.216 117.123 62.8C118.347 61.384 119.871 60.676 121.695 60.676C123.039 60.676 123.987 61 124.539 61.648C125.115 62.272 125.403 63.052 125.403 63.988C125.403 64.828 125.223 65.476 124.863 65.932C124.527 66.388 124.095 66.616 123.567 66.616C123.135 66.616 122.715 66.472 122.307 66.184C122.547 65.392 122.667 64.684 122.667 64.06C122.667 63.604 122.595 63.244 122.451 62.98C122.307 62.716 122.103 62.584 121.839 62.584C121.239 62.584 120.627 63.136 120.003 64.24C119.403 65.32 118.911 66.664 118.527 68.272C118.143 69.856 117.951 71.356 117.951 72.772C117.951 74.044 118.191 74.992 118.671 75.616C119.151 76.24 119.799 76.552 120.615 76.552C121.527 76.552 122.499 76.216 123.531 75.544C124.563 74.848 125.463 73.852 126.231 72.556H127.455C126.639 74.356 125.439 75.916 123.855 77.236C122.271 78.556 120.591 79.216 118.815 79.216C117.183 79.216 115.899 78.7 114.963 77.668C114.027 76.636 113.559 75.244 113.559 73.492C113.559 72.244 113.655 71.2 113.847 70.36H111.795L109.995 79H105.171L107.007 70.36H104.991C104.487 72.808 103.575 74.896 102.255 76.624C100.935 78.352 99.2314 79.216 97.1434 79.216ZM139.006 79.216C137.638 79.216 136.582 78.856 135.838 78.136C135.118 77.392 134.758 76.48 134.758 75.4C134.758 74.704 135.034 73.024 135.586 70.36H131.59L129.754 79H124.569L128.386 61H133.57L132.022 68.2H136.054L137.674 61H142.498L140.59 69.928C140.35 70.96 140.146 71.86 139.978 72.628C139.81 73.396 139.726 73.924 139.726 74.212C139.726 75.22 140.206 75.724 141.166 75.724C141.838 75.724 142.378 75.496 142.786 75.04C143.194 74.584 143.662 73.756 144.19 72.556H145.702C144.19 76.996 141.958 79.216 139.006 79.216ZM149.116 79.216C147.484 79.216 146.212 78.808 145.3 77.992C144.412 77.176 143.968 76.048 143.968 74.608C143.968 73.888 144.052 73.204 144.22 72.556L146.596 61H151.564L148.9 73.672C148.828 73.864 148.792 74.2 148.792 74.68C148.792 75.664 149.332 76.156 150.412 76.156C151.06 76.156 151.684 75.892 152.284 75.364C152.884 74.812 153.364 74.08 153.724 73.168C154.084 72.256 154.264 71.26 154.264 70.18C154.264 69.58 154.084 69.124 153.724 68.812C153.412 69.028 153.064 69.136 152.68 69.136C152.272 69.136 151.9 69.004 151.564 68.74C151.252 68.476 151.096 68.092 151.096 67.588C151.096 67.06 151.3 66.652 151.708 66.364C152.116 66.076 152.584 65.932 153.112 65.932C153.664 65.932 154.156 66.004 154.588 66.148C156.124 65.452 157.96 64.456 160.096 63.16C161.824 62.128 163.072 61.408 163.84 61H166.072L164.164 69.928C163.924 70.96 163.72 71.86 163.552 72.628C163.384 73.396 163.3 73.924 163.3 74.212C163.3 75.22 163.78 75.724 164.74 75.724C165.412 75.724 165.952 75.496 166.36 75.04C166.768 74.584 167.236 73.756 167.764 72.556H169.276C167.764 76.996 165.544 79.216 162.616 79.216C161.224 79.216 160.168 78.844 159.448 78.1C158.728 77.332 158.368 76.396 158.368 75.292C158.368 74.428 159.028 71.044 160.348 65.14C159.22 65.86 157.876 66.64 156.316 67.48C156.892 68.368 157.18 69.568 157.18 71.08C157.18 72.208 156.88 73.408 156.28 74.68C155.68 75.928 154.768 76.996 153.544 77.884C152.344 78.772 150.868 79.216 149.116 79.216ZM172.849 79.216C171.097 79.216 169.729 78.76 168.745 77.848C167.761 76.912 167.269 75.46 167.269 73.492C167.269 71.836 167.593 70.012 168.241 68.02C168.889 66.028 169.945 64.312 171.409 62.872C172.873 61.408 174.733 60.676 176.989 60.676C179.629 60.676 180.949 61.828 180.949 64.132C180.949 65.476 180.565 66.712 179.797 67.84C179.029 68.968 178.009 69.88 176.737 70.576C175.465 71.248 174.109 71.632 172.669 71.728C172.621 72.256 172.597 72.616 172.597 72.808C172.597 74.8 173.341 75.796 174.829 75.796C175.501 75.796 176.221 75.616 176.989 75.256C177.757 74.896 178.453 74.44 179.077 73.888C178.429 77.44 176.353 79.216 172.849 79.216ZM172.921 70C173.833 69.976 174.685 69.676 175.477 69.1C176.293 68.524 176.941 67.792 177.421 66.904C177.925 65.992 178.177 65.044 178.177 64.06C178.177 63.076 177.877 62.584 177.277 62.584C176.437 62.584 175.597 63.352 174.757 64.888C173.941 66.4 173.329 68.104 172.921 70Z" fill="#C71800"/>
<path d="M15.8 78.784L15.1374 79.533L15.1444 79.5392L15.1515 79.5452L15.8 78.784ZM15.26 74.86L16.0494 74.2461L14.9869 72.88L14.3339 74.4827L15.26 74.86ZM20.336 74.248L19.4285 73.8279L19.425 73.8355L20.336 74.248ZM16.088 65.788L15.6581 64.8851L15.2139 65.0966L15.1104 65.5776L16.088 65.788ZM13.244 79V80H14.0516L14.2216 79.2104L13.244 79ZM8.06 79L7.08246 78.7893L6.82146 80H8.06V79ZM13.244 54.952L14.2215 55.1627L14.4912 53.9119L13.2123 53.9525L13.244 54.952ZM9.752 56.68L8.94782 56.0856L8.9436 56.0913L8.93946 56.0971L9.752 56.68ZM8.816 64.276L7.90982 64.6989L7.91553 64.7111L7.92157 64.7232L8.816 64.276ZM9.068 64.852V65.852H10.068V64.852H9.068ZM6.152 64.06L5.48943 64.809L5.50461 64.8224L5.52033 64.8352L6.152 64.06ZM6.476 56.716L7.33221 57.2327L7.33605 57.2262L6.476 56.716ZM10.472 53.296L10.0485 52.3901L10.0439 52.3923L10.472 53.296ZM20.048 52.18L19.9444 53.1746L19.9578 53.176L19.9713 53.1771L20.048 52.18ZM27.788 52L28.7686 52.1961L29.1034 50.5221L27.4795 51.0488L27.788 52ZM27.536 53.44L28.5216 53.609L28.5216 53.609L27.536 53.44ZM18.284 55.6L18.488 54.621L17.5157 54.4185L17.3064 55.3893L18.284 55.6ZM16.484 63.952L15.5064 63.7413L15.1479 65.4051L16.7758 64.9085L16.484 63.952ZM24.692 65.14L23.9201 65.7757L23.9269 65.7839L23.9338 65.792L24.692 65.14ZM25.376 74.212L24.4415 73.856L24.4384 73.8642L25.376 74.212ZM18.536 78.612C17.5073 78.612 16.857 78.3707 16.4485 78.0228L15.1515 79.5452C16.039 80.3013 17.2127 80.612 18.536 80.612V78.612ZM16.4626 78.035C16.0686 77.6865 15.864 77.2469 15.864 76.624H13.864C13.864 77.7771 14.2834 78.7775 15.1374 79.533L16.4626 78.035ZM15.864 76.624C15.864 76.26 15.9559 75.8024 16.1861 75.2373L14.3339 74.4827C14.0361 75.2136 13.864 75.932 13.864 76.624H15.864ZM14.4706 75.4739C15.296 76.5351 16.373 77.156 17.672 77.156V75.156C17.099 75.156 16.568 74.9129 16.0494 74.2461L14.4706 75.4739ZM17.672 77.156C18.4592 77.156 19.1897 76.9436 19.8203 76.492C20.4416 76.047 20.9063 75.4129 21.247 74.6605L19.425 73.8355C19.1897 74.3551 18.9224 74.675 18.6557 74.866C18.3983 75.0504 18.0848 75.156 17.672 75.156V77.156ZM21.2435 74.6681C21.9126 73.2229 22.236 71.6124 22.236 69.856H20.236C20.236 71.3636 19.9594 72.6811 19.4285 73.8279L21.2435 74.6681ZM22.236 69.856C22.236 68.2791 21.9363 66.9128 21.1724 65.9237C20.3707 64.8857 19.1892 64.428 17.816 64.428V66.428C18.7228 66.428 19.2513 66.7083 19.5896 67.1463C19.9657 67.6332 20.236 68.4809 20.236 69.856H22.236ZM17.816 64.428C17.0431 64.428 16.3163 64.5717 15.6581 64.8851L16.5179 66.6909C16.8677 66.5243 17.2929 66.428 17.816 66.428V64.428ZM15.1104 65.5776L12.2664 78.7896L14.2216 79.2104L17.0656 65.9984L15.1104 65.5776ZM13.244 78H8.06V80H13.244V78ZM9.03754 79.2107L14.2215 55.1627L12.2665 54.7413L7.08246 78.7893L9.03754 79.2107ZM13.2123 53.9525C11.43 54.0091 9.96593 54.7082 8.94782 56.0856L10.5562 57.2744C11.1701 56.4438 12.034 55.9909 13.2757 55.9515L13.2123 53.9525ZM8.93946 56.0971C7.95316 57.4719 7.564 59.6564 7.564 62.404H9.564C9.564 59.7276 9.96684 58.0961 10.5645 57.2629L8.93946 56.0971ZM7.564 62.404C7.564 63.3009 7.64057 64.1219 7.90982 64.6989L9.72218 63.8531C9.65543 63.7101 9.564 63.2831 9.564 62.404H7.564ZM7.92157 64.7232C8.00289 64.8858 8.05702 65.0001 8.08884 65.0728C8.10529 65.1104 8.10982 65.1234 8.10839 65.1193C8.10775 65.1175 8.10126 65.0991 8.09392 65.0698C8.09012 65.0546 8.08445 65.0299 8.07944 64.9984C8.07477 64.9691 8.068 64.9175 8.068 64.852H10.068C10.068 64.6473 10.0018 64.475 9.99611 64.4586C9.97368 64.3946 9.94671 64.3296 9.92116 64.2712C9.86898 64.1519 9.79711 64.0022 9.71043 63.8288L7.92157 64.7232ZM9.068 63.852C7.8821 63.852 7.1783 63.6063 6.78367 63.2848L5.52033 64.8352C6.4217 65.5697 7.6619 65.852 9.068 65.852V63.852ZM6.81457 63.311C6.49337 63.0269 6.216 62.4654 6.216 61.36H4.216C4.216 62.7506 4.56263 63.9891 5.48943 64.809L6.81457 63.311ZM6.216 61.36C6.216 59.829 6.59089 58.4611 7.33219 57.2327L5.61981 56.1993C4.68111 57.7549 4.216 59.483 4.216 61.36H6.216ZM7.33605 57.2262C8.05354 56.0167 9.21502 54.9979 10.9001 54.1997L10.0439 52.3923C8.08098 53.3221 6.57846 54.5833 5.61595 56.2058L7.33605 57.2262ZM10.8955 54.2019C12.5699 53.4191 14.753 53 17.492 53V51C14.567 51 12.0701 51.4449 10.0485 52.3901L10.8955 54.2019ZM17.492 53C17.9892 53 18.798 53.0552 19.9444 53.1746L20.1516 51.1854C18.994 51.0648 18.0988 51 17.492 51V53ZM19.9713 53.1771C22.1521 53.3448 23.6883 53.432 24.548 53.432V51.432C23.7757 51.432 22.3119 51.3512 20.1247 51.1829L19.9713 53.1771ZM24.548 53.432C25.8895 53.432 27.0801 53.2809 28.0965 52.9512L27.4795 51.0488C26.7199 51.2951 25.7505 51.432 24.548 51.432V53.432ZM26.8074 51.8039C26.7799 51.9414 26.6927 52.4406 26.5504 53.271L28.5216 53.609C28.6673 52.7594 28.7481 52.2986 28.7686 52.1961L26.8074 51.8039ZM26.5504 53.271C26.438 53.9268 26.1771 54.4286 25.7849 54.8209L27.1991 56.2351C27.9109 55.5234 28.346 54.6332 28.5216 53.609L26.5504 53.271ZM25.7849 54.8209C25.4794 55.1264 25.0447 55.32 24.368 55.32V57.32C25.4674 57.32 26.4486 56.9856 27.1991 56.2351L25.7849 54.8209ZM24.368 55.32C22.7033 55.32 20.7461 55.0915 18.488 54.621L18.08 56.579C20.4299 57.0685 22.5287 57.32 24.368 57.32V55.32ZM17.3064 55.3893L15.5064 63.7413L17.4616 64.1627L19.2616 55.8107L17.3064 55.3893ZM16.7758 64.9085C18.1346 64.4939 19.2556 64.304 20.156 64.304V62.304C18.9924 62.304 17.6654 62.5461 16.1922 62.9955L16.7758 64.9085ZM20.156 64.304C21.9611 64.304 23.1516 64.8426 23.9201 65.7757L25.4639 64.5043C24.2164 62.9894 22.3829 62.304 20.156 62.304V64.304ZM23.9338 65.792C24.7709 66.7654 25.24 68.12 25.24 69.964H27.24C27.24 67.776 26.6771 65.9146 25.4502 64.488L23.9338 65.792ZM25.24 69.964C25.24 71.1383 24.9837 72.4329 24.4415 73.856L26.3105 74.568C26.9203 72.9671 27.24 71.4297 27.24 69.964H25.24ZM24.4384 73.8642C23.9407 75.2059 23.1775 76.3437 22.1443 77.2908L23.4957 78.7652C24.7665 77.6003 25.7073 76.1941 26.3136 74.5598L24.4384 73.8642ZM22.1443 77.2908C21.1941 78.1619 20.0144 78.612 18.536 78.612V80.612C20.4656 80.612 22.1419 80.0061 23.4957 78.7652L22.1443 77.2908ZM30.693 87.1L30.0774 87.888L30.0774 87.888L30.693 87.1ZM31.197 81.196L30.6026 80.3917L30.5915 80.4002L31.197 81.196ZM35.409 79.144L35.7172 80.0953L36.2612 79.9191L36.3852 79.3609L35.409 79.144ZM35.841 77.2L36.8172 77.4169L37.6367 73.7295L35.1 76.5285L35.841 77.2ZM33.717 78.784L34.0884 79.7125L34.0884 79.7125L33.717 78.784ZM28.713 78.136L27.994 78.831L27.9999 78.8371L28.0059 78.8431L28.713 78.136ZM27.957 72.556L26.9787 72.3487L26.9765 72.3599L27.957 72.556ZM30.405 61V60H29.5947L29.4267 60.7928L30.405 61ZM35.589 61L36.5673 61.2072L36.823 60H35.589V61ZM32.997 73.24L33.9672 73.4825L33.9716 73.4649L33.9753 73.4472L32.997 73.24ZM35.625 74.932L36.365 75.6047L36.3724 75.5965L36.3796 75.5882L35.625 74.932ZM36.777 72.772L37.7283 73.0805L37.7441 73.0316L37.7549 72.9813L36.777 72.772ZM39.297 61V60H38.4884L38.3192 60.7907L39.297 61ZM44.481 61L45.459 61.2087L45.7169 60H44.481V61ZM40.917 77.704L39.939 77.4953L39.5741 79.2057L41.2333 78.6527L40.917 77.704ZM43.689 75.976L42.948 75.3045L42.948 75.3045L43.689 75.976ZM45.453 72.556V71.556H44.7213L44.4999 72.2534L45.453 72.556ZM46.965 72.556L47.922 72.8463L48.3134 71.556H46.965V72.556ZM44.337 77.272L45.0025 78.0186L45.0113 78.0105L44.337 77.272ZM40.593 79.288L40.3426 78.3199L39.7408 78.4755L39.6141 79.084L40.593 79.288ZM40.053 81.88L39.074 81.676L39.0736 81.6781L40.053 81.88ZM37.569 86.668L36.9769 85.862L36.9664 85.87L37.569 86.668ZM34.833 81.988L35.8118 82.1929L35.8123 82.1906L34.833 81.988ZM35.049 80.944L36.0283 81.1466L36.3928 79.3851L34.7042 80.0053L35.049 80.944ZM31.845 84.832L32.5883 84.163L32.5883 84.163L31.845 84.832ZM33.573 87C32.602 87 31.8703 86.7507 31.3087 86.312L30.0774 87.888C31.0518 88.6493 32.2401 89 33.573 89V87ZM31.3087 86.312C30.8233 85.9328 30.541 85.3829 30.541 84.508H28.541C28.541 85.8891 29.0267 87.0672 30.0774 87.888L31.3087 86.312ZM30.541 84.508C30.541 83.4575 30.943 82.6458 31.8026 81.9918L30.5915 80.4002C29.2431 81.4262 28.541 82.8225 28.541 84.508H30.541ZM31.7914 82.0002C32.7867 81.2645 34.0864 80.6236 35.7172 80.0953L35.1009 78.1927C33.3237 78.7684 31.8153 79.4955 30.6026 80.3918L31.7914 82.0002ZM36.3852 79.3609L36.8172 77.4169L34.8648 76.9831L34.4328 78.9271L36.3852 79.3609ZM35.1 76.5285C34.4734 77.22 33.8853 77.6397 33.3456 77.8555L34.0884 79.7125C34.9888 79.3523 35.8167 78.716 36.582 77.8715L35.1 76.5285ZM33.3456 77.8555C32.7387 78.0983 32.1325 78.216 31.521 78.216V80.216C32.3976 80.216 33.2554 80.0457 34.0884 79.7125L33.3456 77.8555ZM31.521 78.216C30.5963 78.216 29.9274 77.9361 29.4201 77.4289L28.0059 78.8431C28.9387 79.7759 30.1418 80.216 31.521 80.216V78.216ZM29.432 77.441C28.9822 76.9756 28.669 76.1902 28.669 74.896H26.669C26.669 76.4818 27.0519 77.8564 27.994 78.831L29.432 77.441ZM28.669 74.896C28.669 74.3899 28.7515 73.6825 28.9376 72.7521L26.9765 72.3599C26.7785 73.3495 26.669 74.2021 26.669 74.896H28.669ZM28.9353 72.7632L31.3833 61.2072L29.4267 60.7928L26.9787 72.3488L28.9353 72.7632ZM30.405 62H35.589V60H30.405V62ZM34.6107 60.7928L32.0187 73.0328L33.9753 73.4472L36.5673 61.2072L34.6107 60.7928ZM32.0269 72.9975C31.9341 73.3687 31.889 73.7504 31.889 74.14H33.889C33.889 73.9056 33.916 73.6873 33.9672 73.4825L32.0269 72.9975ZM31.889 74.14C31.889 74.7504 31.9874 75.3848 32.3328 75.8913C32.725 76.4666 33.3272 76.724 33.969 76.724V74.724C33.9115 74.724 33.9095 74.7138 33.9357 74.7266C33.9481 74.7326 33.9607 74.741 33.9715 74.7505C33.9821 74.7598 33.9862 74.7661 33.9853 74.7647C33.9821 74.7601 33.9561 74.7189 33.9317 74.6114C33.9073 74.504 33.889 74.3504 33.889 74.14H31.889ZM33.969 76.724C34.9165 76.724 35.7255 76.3081 36.365 75.6047L34.8851 74.2593C34.5646 74.6119 34.2696 74.724 33.969 74.724V76.724ZM36.3796 75.5882C36.9686 74.9108 37.4098 74.0625 37.7283 73.0805L35.8258 72.4635C35.5683 73.2575 35.2414 73.8492 34.8704 74.2758L36.3796 75.5882ZM37.7549 72.9813L40.2749 61.2093L38.3192 60.7907L35.7992 72.5627L37.7549 72.9813ZM39.297 62H44.481V60H39.297V62ZM43.503 60.7913L39.939 77.4953L41.895 77.9127L45.459 61.2087L43.503 60.7913ZM41.2333 78.6527C42.5202 78.2237 43.6002 77.5632 44.43 76.6475L42.948 75.3045C42.3859 75.9248 41.6179 76.4163 40.6008 76.7553L41.2333 78.6527ZM44.43 76.6475C45.2598 75.7319 45.9035 74.4418 46.4062 72.8586L44.4999 72.2534C44.0425 73.6942 43.5103 74.6841 42.948 75.3045L44.43 76.6475ZM45.453 73.556H46.965V71.556H45.453V73.556ZM46.0081 72.2657C45.3884 74.3085 44.584 75.6924 43.6628 76.5335L45.0113 78.0105C46.298 76.8356 47.2457 75.0755 47.922 72.8463L46.0081 72.2657ZM43.6717 76.5255C42.6829 77.4068 41.5762 78.0008 40.3426 78.3199L40.8434 80.2561C42.3939 79.8552 43.7832 79.1052 45.0024 78.0185L43.6717 76.5255ZM39.6141 79.084L39.0741 81.676L41.032 82.084L41.572 79.492L39.6141 79.084ZM39.0736 81.6781C38.614 83.9071 37.8608 85.2128 36.977 85.8621L38.1611 87.4739C39.6293 86.3952 40.532 84.5089 41.0324 82.0819L39.0736 81.6781ZM36.9664 85.87C35.9658 86.6255 34.8458 87 33.573 87V89C35.2762 89 36.8202 88.4865 38.1716 87.466L36.9664 85.87ZM32.745 86.192C33.648 86.192 34.3053 85.58 34.7539 84.9351L33.1121 83.7929C32.9631 84.0071 32.8471 84.1152 32.7762 84.1646C32.7145 84.2076 32.7093 84.192 32.745 84.192V86.192ZM34.7539 84.9351C35.2457 84.2282 35.5822 83.2898 35.8118 82.1929L33.8542 81.7831C33.6518 82.7502 33.3884 83.3958 33.1121 83.7929L34.7539 84.9351ZM35.8123 82.1906L36.0283 81.1466L34.0698 80.7414L33.8538 81.7854L35.8123 82.1906ZM34.7042 80.0053C33.4753 80.4568 32.466 80.9786 31.7478 81.6016C31.016 82.2363 30.521 83.0396 30.521 84.004H32.521C32.521 83.7924 32.6141 83.4977 33.0583 83.1124C33.5161 82.7154 34.2708 82.2952 35.3938 81.8827L34.7042 80.0053ZM30.521 84.004C30.521 84.5724 30.7268 85.0844 31.1017 85.501L32.5883 84.163C32.5312 84.0996 32.521 84.0596 32.521 84.004H30.521ZM31.1017 85.501C31.5433 85.9916 32.1361 86.192 32.745 86.192V84.192C32.6568 84.192 32.6153 84.1783 32.6034 84.1735C32.5955 84.1704 32.5938 84.1691 32.5883 84.163L31.1017 85.501ZM76.7488 72.556L77.6955 72.8784L78.1458 71.556H76.7488V72.556ZM66.8848 78.136L66.1662 78.8314L66.1776 78.8432L66.1894 78.8546L66.8848 78.136ZM66.5608 70.612L67.5368 70.83L67.5369 70.8297L66.5608 70.612ZM67.6048 65.932L68.5809 66.1497L66.7099 65.4858L67.6048 65.932ZM61.0888 79V80H61.7076L61.9838 79.4462L61.0888 79ZM56.8408 79L55.8429 79.0643L55.9032 80H56.8408V79ZM55.8688 63.916L56.8668 63.8517L56.7088 61.3995L55.1096 63.2652L55.8688 63.916ZM54.7168 66.112L55.6581 66.4499L55.6607 66.4424L54.7168 66.112ZM53.7448 69.928L52.7632 69.7375L52.7631 69.7377L53.7448 69.928ZM52.4848 75.328L51.5291 75.0339L51.5265 75.0424L51.524 75.0508L52.4848 75.328ZM50.9368 78.208L50.2297 77.5009L50.2233 77.5073L50.217 77.5139L50.9368 78.208ZM45.2488 78.028L45.9777 77.3433L45.977 77.3426L45.2488 78.028ZM44.6728 73.132L45.4537 73.7567L45.4611 73.7475L45.4683 73.738L44.6728 73.132ZM47.7688 75.544L48.476 76.2511L48.4901 76.237L48.5036 76.2223L47.7688 75.544ZM46.7608 75.904L46.8849 74.9117L45.7608 74.7712V75.904H46.7608ZM49.8208 76.552L50.5641 77.221L50.5722 77.212L50.5801 77.2028L49.8208 76.552ZM50.9368 74.104L49.9785 73.8185L49.9757 73.8279L49.973 73.8374L50.9368 74.104ZM52.0168 69.208L53.0011 69.3849L53.0022 69.3787L52.0168 69.208ZM54.3928 62.836L53.643 62.1744L53.6421 62.1754L54.3928 62.836ZM60.2248 61L61.2236 60.9506L61.1766 60H60.2248V61ZM60.9088 74.824L59.9101 74.8734L60.1009 78.7301L61.8061 75.2656L60.9088 74.824ZM67.7128 61V60H67.0905L66.8156 60.5584L67.7128 61ZM73.5448 61L74.5228 61.209L74.7811 60H73.5448V61ZM71.6368 69.928L72.6109 70.1545L72.6129 70.1458L72.6148 70.137L71.6368 69.928ZM71.0248 72.628L72.0017 72.8417L72.0017 72.8417L71.0248 72.628ZM75.2368 72.556V71.556H74.5843L74.3215 72.1533L75.2368 72.556ZM75.8022 72.2336C74.3337 76.5461 72.343 78.216 70.0528 78.216V80.216C73.6667 80.216 76.14 77.4459 77.6955 72.8784L75.8022 72.2336ZM70.0528 78.216C68.8584 78.216 68.084 77.9048 67.5803 77.4174L66.1894 78.8546C67.1737 79.8072 68.5113 80.216 70.0528 80.216V78.216ZM67.6034 77.4406C67.0724 76.8918 66.8048 76.2329 66.8048 75.4H64.8048C64.8048 76.7271 65.2573 77.8922 66.1662 78.8314L67.6034 77.4406ZM66.8048 75.4C66.8048 74.5867 67.0322 73.0885 67.5368 70.83L65.5849 70.394C65.0815 72.6475 64.8048 74.3413 64.8048 75.4H66.8048ZM67.5369 70.8297L68.5809 66.1497L66.6288 65.7143L65.5848 70.3943L67.5369 70.8297ZM66.7099 65.4858L60.1939 78.5538L61.9838 79.4462L68.4998 66.3782L66.7099 65.4858ZM61.0888 78H56.8408V80H61.0888V78ZM57.8388 78.9357L56.8668 63.8517L54.8709 63.9803L55.8429 79.0643L57.8388 78.9357ZM55.1096 63.2652C54.5654 63.9 54.1305 64.7602 53.773 65.7816L55.6607 66.4424C55.9752 65.5438 56.3082 64.94 56.6281 64.5668L55.1096 63.2652ZM53.7756 65.7741C53.415 66.7789 53.0795 68.107 52.7632 69.7375L54.7265 70.1185C55.0342 68.533 55.3467 67.3171 55.658 66.4499L53.7756 65.7741ZM52.7631 69.7377C52.3093 72.0784 51.8973 73.8372 51.5291 75.0339L53.4406 75.6221C53.8404 74.3228 54.2684 72.4816 54.7266 70.1183L52.7631 69.7377ZM51.524 75.0508C51.1945 76.1933 50.7463 76.9843 50.2297 77.5009L51.644 78.9151C52.4714 78.0877 53.0552 76.9587 53.4457 75.6052L51.524 75.0508ZM50.217 77.5139C49.7917 77.9549 49.1949 78.216 48.3088 78.216V80.216C49.6307 80.216 50.786 79.8051 51.6567 78.9021L50.217 77.5139ZM48.3088 78.216C47.2313 78.216 46.4966 77.8957 45.9777 77.3433L44.52 78.7127C45.4891 79.7443 46.7944 80.216 48.3088 80.216V78.216ZM45.977 77.3426C45.389 76.7178 45.0968 75.9812 45.0968 75.076H43.0968C43.0968 76.4748 43.5727 77.7062 44.5206 78.7134L45.977 77.3426ZM45.0968 75.076C45.0968 74.4125 45.252 74.0088 45.4537 73.7567L43.892 72.5073C43.3257 73.2152 43.0968 74.1075 43.0968 75.076H45.0968ZM45.4683 73.738C45.6502 73.4993 45.875 73.376 46.2568 73.376V71.376C45.2947 71.376 44.4635 71.7567 43.8774 72.526L45.4683 73.738ZM46.2568 73.376C46.6056 73.376 46.8065 73.4759 46.9537 73.6231L48.368 72.2089C47.7952 71.6361 47.0601 71.376 46.2568 71.376V73.376ZM46.9537 73.6231C47.1283 73.7977 47.2008 73.9762 47.2008 74.212H49.2008C49.2008 73.4398 48.9133 72.7543 48.368 72.2089L46.9537 73.6231ZM47.2008 74.212C47.2008 74.6275 47.0985 74.7959 47.034 74.8657L48.5036 76.2223C49.0152 75.6681 49.2008 74.9485 49.2008 74.212H47.2008ZM47.0617 74.8369C47.0076 74.891 46.9746 74.9047 46.9645 74.9083C46.9561 74.9113 46.935 74.918 46.8849 74.9117L46.6368 76.8963C47.3452 76.9848 47.983 76.744 48.476 76.2511L47.0617 74.8369ZM45.7608 75.904C45.7608 76.5208 45.9207 77.1656 46.414 77.6462C46.9024 78.1222 47.5491 78.272 48.1648 78.272V76.272C47.8446 76.272 47.7892 76.1938 47.8097 76.2138C47.835 76.2384 47.7608 76.1992 47.7608 75.904H45.7608ZM48.1648 78.272C49.1073 78.272 49.9339 77.9212 50.5641 77.221L49.0775 75.883C48.8438 76.1428 48.5664 76.272 48.1648 76.272V78.272ZM50.5801 77.2028C51.1548 76.5323 51.575 75.548 51.9007 74.3706L49.973 73.8374C49.6747 74.916 49.3509 75.5637 49.0616 75.9012L50.5801 77.2028ZM51.8952 74.3895C52.2472 73.2077 52.615 71.5325 53.0011 69.3849L51.0326 69.0311C50.6507 71.1554 50.2985 72.7443 49.9785 73.8185L51.8952 74.3895ZM53.0022 69.3787C53.5232 66.3708 54.2784 64.4798 55.1436 63.4966L53.6421 62.1754C52.3953 63.5922 51.5665 65.9492 51.0315 69.0373L53.0022 69.3787ZM55.1427 63.4976C56.0206 62.5026 57.1447 62 58.6048 62V60C56.609 60 54.9251 60.7214 53.643 62.1744L55.1427 63.4976ZM58.6048 62H60.2248V60H58.6048V62ZM59.2261 61.0494L59.9101 74.8734L61.9076 74.7746L61.2236 60.9506L59.2261 61.0494ZM61.8061 75.2656L68.6101 61.4416L66.8156 60.5584L60.0116 74.3824L61.8061 75.2656ZM67.7128 62H73.5448V60H67.7128V62ZM72.5669 60.791L70.6589 69.719L72.6148 70.137L74.5228 61.209L72.5669 60.791ZM70.6628 69.7015C70.4222 70.7364 70.2171 71.6409 70.0479 72.4143L72.0017 72.8417C72.1686 72.0791 72.3715 71.1836 72.6109 70.1545L70.6628 69.7015ZM70.0479 72.4143C69.8823 73.1717 69.7728 73.8006 69.7728 74.212H71.7728C71.7728 74.0474 71.8314 73.6203 72.0017 72.8417L70.0479 72.4143ZM69.7728 74.212C69.7728 74.8583 69.9259 75.5287 70.4087 76.0357C70.9002 76.5517 71.5659 76.724 72.2128 76.724V74.724C72.0575 74.724 71.9636 74.7033 71.9132 74.6856C71.8681 74.6699 71.8575 74.6569 71.857 74.6563C71.8555 74.6547 71.8365 74.6355 71.816 74.5709C71.7941 74.5021 71.7728 74.3877 71.7728 74.212H69.7728ZM72.2128 76.724C73.1381 76.724 73.9605 76.3971 74.5781 75.7068L73.0876 74.3732C72.8892 74.5949 72.6316 74.724 72.2128 74.724V76.724ZM74.5781 75.7068C75.0989 75.1248 75.6188 74.1709 76.1522 72.9587L74.3215 72.1533C73.7989 73.3411 73.3828 74.0432 73.0876 74.3732L74.5781 75.7068ZM75.2368 73.556H76.7488V71.556H75.2368V73.556ZM76.1422 77.812L75.426 78.5099L75.426 78.5099L76.1422 77.812ZM75.8182 67.84L74.879 67.4964L74.8767 67.5029L75.8182 67.84ZM78.9862 62.872L79.6808 63.5914L79.681 63.5912L78.9862 62.872ZM86.2222 61.324L86.7956 60.5048L86.7956 60.5048L86.2222 61.324ZM86.9422 62.908H85.9422L87.9213 63.1112L86.9422 62.908ZM87.3382 61V60H86.5244L86.3591 60.7968L87.3382 61ZM92.5222 61L93.5005 61.2072L93.7561 60H92.5222V61ZM89.9302 73.24L90.8964 73.4977L90.9031 73.4726L90.9085 73.4472L89.9302 73.24ZM92.9902 75.004L92.2122 74.3757L92.2048 74.3849L92.1976 74.3943L92.9902 75.004ZM94.1782 72.556V71.556H93.4239L93.2167 72.2813L94.1782 72.556ZM95.6902 72.556L96.6362 72.8801L97.0898 71.556H95.6902V72.556ZM92.3782 77.848L92.9537 78.6658L92.9566 78.6637L92.3782 77.848ZM86.0062 78.388L85.3137 79.1094L85.3284 79.1235L85.3436 79.137L86.0062 78.388ZM84.9262 75.904L85.9201 75.7936L85.6295 73.178L84.1098 75.3265L84.9262 75.904ZM82.5862 78.316L83.1674 79.1297L83.1717 79.1267L82.5862 78.316ZM83.6662 74.896L84.3581 75.618L84.3587 75.6174L83.6662 74.896ZM84.8902 72.556L85.867 72.7704L85.8684 72.7638L84.8902 72.556ZM86.6182 64.42L87.5964 64.6278L87.6182 64.525V64.42H86.6182ZM86.2582 63.52L85.4656 64.1297L85.4775 64.1452L85.49 64.1602L86.2582 63.52ZM82.5502 64.744L83.3711 65.3151L83.3768 65.3068L82.5502 64.744ZM80.7502 68.776L81.7139 69.0429L81.715 69.0391L80.7502 68.776ZM80.6062 75.22L79.8991 75.9271L79.9113 75.9393L79.9239 75.9511L80.6062 75.22ZM79.5622 78.216C78.4498 78.216 77.5726 77.8471 76.8584 77.1141L75.426 78.5099C76.5358 79.6489 77.9386 80.216 79.5622 80.216V78.216ZM76.8584 77.1141C76.2041 76.4426 75.7742 75.285 75.7742 73.42H73.7742C73.7742 75.539 74.2562 77.3094 75.426 78.5099L76.8584 77.1141ZM75.7742 73.42C75.7742 71.7759 76.0962 70.0302 76.7597 68.1771L74.8767 67.5029C74.1482 69.5378 73.7742 71.5121 73.7742 73.42H75.7742ZM76.7573 68.1836C77.4297 66.3457 78.4065 64.8217 79.6808 63.5914L78.2916 62.1526C76.7818 63.6103 75.6467 65.3983 74.8791 67.4964L76.7573 68.1836ZM79.681 63.5912C80.9132 62.4007 82.3451 61.82 84.0262 61.82V59.82C81.8193 59.82 79.8912 60.6073 78.2914 62.1528L79.681 63.5912ZM84.0262 61.82C84.9305 61.82 85.4165 61.9807 85.6487 62.1432L86.7956 60.5048C86.0679 59.9953 85.0899 59.82 84.0262 59.82V61.82ZM85.6487 62.1432C85.8808 62.3057 85.9422 62.4533 85.9422 62.656H87.9422C87.9422 61.7547 87.5236 61.0143 86.7956 60.5048L85.6487 62.1432ZM85.9422 62.656V62.908H87.9422V62.656H85.9422ZM87.9213 63.1112L88.3173 61.2032L86.3591 60.7968L85.9631 62.7048L87.9213 63.1112ZM87.3382 62H92.5222V60H87.3382V62ZM91.5439 60.7928L88.9519 73.0328L90.9085 73.4472L93.5005 61.2072L91.5439 60.7928ZM88.964 72.9823C88.8435 73.4339 88.7862 73.9052 88.7862 74.392H90.7862C90.7862 74.0628 90.8249 73.7661 90.8964 73.4977L88.964 72.9823ZM88.7862 74.392C88.7862 75.0506 88.9424 75.7301 89.4315 76.2431C89.929 76.7649 90.6036 76.94 91.2622 76.94V74.94C91.1008 74.94 91.0015 74.9185 90.9464 74.8993C90.8967 74.8819 90.8824 74.8665 90.8789 74.8629C90.876 74.8599 90.7862 74.7654 90.7862 74.392H88.7862ZM91.2622 76.94C92.3001 76.94 93.1501 76.4362 93.7828 75.6137L92.1976 74.3943C91.8703 74.8198 91.5682 74.94 91.2622 74.94V76.94ZM93.7681 75.6323C94.378 74.8773 94.8256 73.93 95.1397 72.8307L93.2167 72.2813C92.9547 73.198 92.6104 73.8827 92.2122 74.3757L93.7681 75.6323ZM94.1782 73.556H95.6902V71.556H94.1782V73.556ZM94.7442 72.2319C93.8817 74.7493 92.8663 76.276 91.7998 77.0323L92.9566 78.6637C94.5301 77.548 95.7226 75.5467 96.6362 72.8801L94.7442 72.2319ZM91.8027 77.0302C90.6407 77.8479 89.5297 78.216 88.4542 78.216V80.216C90.0187 80.216 91.5237 79.6721 92.9537 78.6658L91.8027 77.0302ZM88.4542 78.216C87.6366 78.216 87.0734 77.9969 86.6688 77.639L85.3436 79.137C86.187 79.8831 87.2558 80.216 88.4542 80.216V78.216ZM86.6987 77.6666C86.3135 77.2968 86.0223 76.7132 85.9201 75.7936L83.9323 76.0144C84.0701 77.2548 84.4989 78.3272 85.3137 79.1094L86.6987 77.6666ZM84.1098 75.3265C83.4692 76.2322 82.7646 76.9536 82.0007 77.5053L83.1717 79.1267C84.1358 78.4304 84.9912 77.5438 85.7426 76.4815L84.1098 75.3265ZM82.0049 77.5023C81.3575 77.9647 80.5599 78.216 79.5622 78.216V80.216C80.9165 80.216 82.1348 79.8673 83.1674 79.1297L82.0049 77.5023ZM81.9022 76.724C82.8358 76.724 83.659 76.288 84.3581 75.618L82.9743 74.174C82.5214 74.608 82.1685 74.724 81.9022 74.724V76.724ZM84.3587 75.6174C85.1293 74.8776 85.6176 73.9065 85.8669 72.7704L83.9134 72.3416C83.7308 73.1735 83.4031 73.7624 82.9737 74.1746L84.3587 75.6174ZM85.8684 72.7638L87.5964 64.6278L85.64 64.2122L83.912 72.3482L85.8684 72.7638ZM87.6182 64.42C87.6182 63.8292 87.3847 63.3098 87.0264 62.8798L85.49 64.1602C85.6117 64.3062 85.6182 64.3868 85.6182 64.42H87.6182ZM87.0508 62.9103C86.5701 62.2854 85.8613 62.052 85.1422 62.052V64.052C85.2934 64.052 85.3753 64.0756 85.4125 64.0912C85.4425 64.1038 85.4541 64.1149 85.4656 64.1297L87.0508 62.9103ZM85.1422 62.052C83.725 62.052 82.5932 62.9039 81.7236 64.1812L83.3768 65.3068C84.0431 64.3281 84.6394 64.052 85.1422 64.052V62.052ZM81.7293 64.1729C80.8835 65.3887 80.241 66.8423 79.7854 68.5129L81.715 69.0391C82.1233 67.5417 82.6809 66.3073 83.3711 65.3151L81.7293 64.1729ZM79.7865 68.5091C79.3382 70.1279 79.1022 71.6007 79.1022 72.916H81.1022C81.1022 71.8313 81.2982 70.5441 81.7139 69.0429L79.7865 68.5091ZM79.1022 72.916C79.1022 73.5545 79.1462 74.1251 79.2513 74.6057C79.3521 75.0668 79.5337 75.5618 79.8991 75.9271L81.3133 74.5129C81.3426 74.5422 81.2722 74.4852 81.2051 74.1783C81.1422 73.8909 81.1022 73.4775 81.1022 72.916H79.1022ZM79.9239 75.9511C80.4738 76.4643 81.1515 76.724 81.9022 76.724V74.724C81.6449 74.724 81.4586 74.6477 81.2885 74.4889L79.9239 75.9511ZM93.9034 78.136L94.6345 77.4537L94.6337 77.4528L93.9034 78.136ZM93.4714 73.168L94.2627 73.7794L94.2627 73.7794L93.4714 73.168ZM96.2794 72.88L97.2168 73.2282L97.4403 72.6266L96.9865 72.1729L96.2794 72.88ZM96.2074 76.804L96.9937 76.1862L96.9937 76.1862L96.2074 76.804ZM98.9794 75.688L98.1052 75.2024L98.1052 75.2024L98.9794 75.688ZM100.455 71.656L101.428 71.8883L101.428 71.8883L100.455 71.656ZM97.2154 63.988L97.9424 64.6746L97.9424 64.6746L97.2154 63.988ZM96.0634 66.04V67.04H96.7502L96.9968 66.399L96.0634 66.04ZM94.1914 66.04L93.2339 65.7514L92.8456 67.04H94.1914V66.04ZM96.3514 62.044L95.6535 61.3277L95.6443 61.3369L96.3514 62.044ZM104.019 62.224L104.76 61.5522L104.76 61.5522L104.019 62.224ZM105.315 68.2L104.322 68.0854L104.193 69.2H105.315V68.2ZM107.475 68.2V69.2H108.287L108.454 68.4055L107.475 68.2ZM108.987 61V60H108.176L108.009 60.7945L108.987 61ZM113.811 61L114.79 61.2055L115.043 60H113.811V61ZM112.299 68.2L111.321 67.9945L111.068 69.2H112.299V68.2ZM114.315 68.2V69.2H115.062L115.274 68.4844L114.315 68.2ZM124.539 61.648L123.778 62.2965L123.791 62.3116L123.805 62.3263L124.539 61.648ZM124.863 65.932L124.079 65.3124L124.068 65.3254L124.058 65.3388L124.863 65.932ZM122.307 66.184L121.35 65.894L121.141 66.5847L121.731 67.001L122.307 66.184ZM120.003 64.24L119.133 63.7479L119.129 63.7544L120.003 64.24ZM118.527 68.272L119.499 68.5076L119.5 68.5043L118.527 68.272ZM118.671 75.616L117.879 76.2257L117.879 76.2257L118.671 75.616ZM123.531 75.544L124.077 76.382L124.084 76.3776L124.091 76.3731L123.531 75.544ZM126.231 72.556V71.556H125.662L125.371 72.0462L126.231 72.556ZM127.455 72.556L128.366 72.9689L129.007 71.556H127.455V72.556ZM123.855 77.236L124.496 78.0042L124.496 78.0042L123.855 77.236ZM114.963 77.668L114.223 78.3398L114.223 78.3398L114.963 77.668ZM113.847 70.36L114.822 70.5828L115.102 69.36H113.847V70.36ZM111.795 70.36V69.36H110.982L110.816 70.156L111.795 70.36ZM109.995 79V80H110.809L110.974 79.204L109.995 79ZM105.171 79L104.193 78.7921L103.937 80H105.171V79ZM107.007 70.36L107.986 70.5679L108.242 69.36H107.007V70.36ZM104.991 70.36V69.36H104.176L104.012 70.1583L104.991 70.36ZM102.255 76.624L101.461 76.017L101.461 76.017L102.255 76.624ZM97.1434 78.216C95.7916 78.216 95.0388 77.887 94.6345 77.4537L93.1724 78.8183C94.112 79.825 95.5193 80.216 97.1434 80.216V78.216ZM94.6337 77.4528C94.1221 76.906 93.8594 76.2431 93.8594 75.4H91.8594C91.8594 76.7169 92.2927 77.878 93.1731 78.8192L94.6337 77.4528ZM93.8594 75.4C93.8594 74.5672 94.0381 74.0702 94.2627 73.7794L92.6801 72.5566C92.0888 73.3218 91.8594 74.3128 91.8594 75.4H93.8594ZM94.2627 73.7794C94.5056 73.4651 94.7308 73.376 94.9834 73.376V71.376C94.036 71.376 93.2532 71.8149 92.6801 72.5566L94.2627 73.7794ZM94.9834 73.376C95.2785 73.376 95.4455 73.4603 95.5723 73.5871L96.9865 72.1729C96.4413 71.6277 95.7443 71.376 94.9834 71.376V73.376ZM95.342 72.5318C94.9968 73.4611 94.8114 74.3716 94.8114 75.256H96.8114C96.8114 74.6524 96.938 73.9789 97.2168 73.2282L95.342 72.5318ZM94.8114 75.256C94.8114 76.0459 94.9554 76.8291 95.4211 77.4218L96.9937 76.1862C96.9314 76.1069 96.8114 75.8581 96.8114 75.256H94.8114ZM95.4211 77.4218C95.8183 77.9274 96.3836 78.308 97.1074 78.308V76.308C97.1072 76.308 97.1083 76.308 97.1105 76.3083C97.1127 76.3086 97.1151 76.309 97.1175 76.3097C97.1231 76.3111 97.1239 76.3122 97.119 76.3095C97.1083 76.3035 97.0634 76.2748 96.9937 76.1862L95.4211 77.4218ZM97.1074 78.308C98.3546 78.308 99.2338 77.2892 99.8536 76.1736L98.1052 75.2024C97.525 76.2468 97.1562 76.308 97.1074 76.308V78.308ZM99.8536 76.1736C100.51 74.9924 101.03 73.557 101.428 71.8883L99.4828 71.4237C99.1133 72.971 98.649 74.2236 98.1052 75.2024L99.8536 76.1736ZM101.428 71.8883C101.827 70.2165 102.031 68.626 102.031 67.12H100.031C100.031 68.446 99.8515 69.8795 99.4828 71.4237L101.428 71.8883ZM102.031 67.12C102.031 65.7959 101.845 64.6395 101.347 63.7827C100.801 62.8428 99.9216 62.34 98.8354 62.34V64.34C99.2132 64.34 99.4318 64.4672 99.6177 64.7873C99.8519 65.1905 100.031 65.9241 100.031 67.12H102.031ZM98.8354 62.34C97.9279 62.34 97.1109 62.6423 96.4884 63.3014L97.9424 64.6746C98.1359 64.4697 98.3989 64.34 98.8354 64.34V62.34ZM96.4884 63.3014C95.9499 63.8716 95.5091 64.6955 95.1301 65.681L96.9968 66.399C97.3377 65.5125 97.6649 64.9684 97.9424 64.6746L96.4884 63.3014ZM96.0634 65.04H94.1914V67.04H96.0634V65.04ZM95.1489 66.3286C95.648 64.6724 96.3019 63.5078 97.0585 62.7511L95.6443 61.3369C94.577 62.4042 93.7908 63.9036 93.2339 65.7514L95.1489 66.3286ZM97.0493 62.7602C97.7575 62.0702 98.7566 61.676 100.167 61.676V59.676C98.3622 59.676 96.8173 60.1938 95.6535 61.3278L97.0493 62.7602ZM100.167 61.676C101.57 61.676 102.565 62.1091 103.279 62.8958L104.76 61.5522C103.602 60.2749 102.029 59.676 100.167 59.676V61.676ZM103.279 62.8958C104.008 63.6999 104.423 64.8299 104.423 66.4H106.423C106.423 64.4661 105.903 62.8121 104.76 61.5522L103.279 62.8958ZM104.423 66.4C104.423 66.9344 104.39 67.4961 104.322 68.0854L106.309 68.3146C106.385 67.6559 106.423 67.0176 106.423 66.4H104.423ZM105.315 69.2H107.475V67.2H105.315V69.2ZM108.454 68.4055L109.966 61.2055L108.009 60.7945L106.497 67.9945L108.454 68.4055ZM108.987 62H113.811V60H108.987V62ZM112.833 60.7945L111.321 67.9945L113.278 68.4055L114.79 61.2055L112.833 60.7945ZM112.299 69.2H114.315V67.2H112.299V69.2ZM115.274 68.4844C115.89 66.4076 116.767 64.7418 117.88 63.454L116.367 62.146C115.032 63.6902 114.037 65.6244 113.357 67.9156L115.274 68.4844ZM117.88 63.454C118.92 62.2511 120.17 61.676 121.695 61.676V59.676C119.572 59.676 117.775 60.5169 116.367 62.146L117.88 63.454ZM121.695 61.676C122.915 61.676 123.503 61.9739 123.778 62.2965L125.301 60.9995C124.471 60.0261 123.164 59.676 121.695 59.676V61.676ZM123.805 62.3263C124.192 62.746 124.403 63.2755 124.403 63.988H126.403C126.403 62.8285 126.039 61.7979 125.274 60.9697L123.805 62.3263ZM124.403 63.988C124.403 64.7004 124.249 65.0964 124.079 65.3124L125.648 66.5516C126.198 65.8556 126.403 64.9556 126.403 63.988H124.403ZM124.058 65.3388C123.895 65.5607 123.752 65.616 123.567 65.616V67.616C124.439 67.616 125.16 67.2153 125.668 66.5252L124.058 65.3388ZM123.567 65.616C123.373 65.616 123.151 65.5551 122.884 65.367L121.731 67.001C122.28 67.3889 122.898 67.616 123.567 67.616V65.616ZM123.264 66.474C123.524 65.6167 123.667 64.8083 123.667 64.06H121.667C121.667 64.5597 121.571 65.1673 121.35 65.894L123.264 66.474ZM123.667 64.06C123.667 63.516 123.584 62.9687 123.329 62.5011L121.574 63.4588C121.606 63.5193 121.667 63.692 121.667 64.06H123.667ZM123.329 62.5011C123.04 61.9701 122.527 61.584 121.839 61.584V63.584C121.796 63.584 121.721 63.5703 121.647 63.5226C121.58 63.479 121.563 63.4388 121.574 63.4588L123.329 62.5011ZM121.839 61.584C121.213 61.584 120.681 61.876 120.261 62.2554C119.844 62.6315 119.472 63.147 119.133 63.7479L120.874 64.7321C121.158 64.229 121.405 63.9165 121.6 63.7406C121.792 63.568 121.866 63.584 121.839 63.584V61.584ZM119.129 63.7544C118.473 64.9356 117.953 66.371 117.555 68.0397L119.5 68.5043C119.87 66.957 120.334 65.7044 120.878 64.7256L119.129 63.7544ZM117.556 68.0364C117.156 69.6862 116.951 71.2658 116.951 72.772H118.951C118.951 71.4462 119.131 70.0258 119.499 68.5076L117.556 68.0364ZM116.951 72.772C116.951 74.1389 117.204 75.3483 117.879 76.2257L119.464 75.0063C119.179 74.6357 118.951 73.9491 118.951 72.772H116.951ZM117.879 76.2257C118.556 77.1061 119.502 77.552 120.615 77.552V75.552C120.097 75.552 119.747 75.3739 119.464 75.0063L117.879 76.2257ZM120.615 77.552C121.778 77.552 122.938 77.1237 124.077 76.382L122.986 74.706C122.061 75.3083 121.277 75.552 120.615 75.552V77.552ZM124.091 76.3731C125.268 75.5787 126.264 74.4629 127.092 73.0658L125.371 72.0462C124.663 73.2411 123.858 74.1173 122.972 74.7149L124.091 76.3731ZM126.231 73.556H127.455V71.556H126.231V73.556ZM126.545 72.1431C125.794 73.7998 124.689 75.24 123.215 76.4678L124.496 78.0042C126.19 76.592 127.485 74.9122 128.366 72.9689L126.545 72.1431ZM123.215 76.4678C121.78 77.6634 120.321 78.216 118.815 78.216V80.216C120.862 80.216 122.762 79.4486 124.496 78.0042L123.215 76.4678ZM118.815 78.216C117.413 78.216 116.418 77.7829 115.704 76.9962L114.223 78.3398C115.381 79.6171 116.954 80.216 118.815 80.216V78.216ZM115.704 76.9962C114.975 76.1921 114.559 75.0621 114.559 73.492H112.559C112.559 75.4259 113.08 77.0799 114.223 78.3398L115.704 76.9962ZM114.559 73.492C114.559 72.2887 114.653 71.3252 114.822 70.5828L112.873 70.1372C112.658 71.0748 112.559 72.1993 112.559 73.492H114.559ZM113.847 69.36H111.795V71.36H113.847V69.36ZM110.816 70.156L109.016 78.796L110.974 79.204L112.774 70.564L110.816 70.156ZM109.995 78H105.171V80H109.995V78ZM106.15 79.2079L107.986 70.5679L106.029 70.1521L104.193 78.7921L106.15 79.2079ZM107.007 69.36H104.991V71.36H107.007V69.36ZM104.012 70.1583C103.534 72.4811 102.677 74.4251 101.461 76.017L103.05 77.231C104.474 75.3669 105.441 73.1349 105.971 70.5617L104.012 70.1583ZM101.461 76.017C100.321 77.5093 98.905 78.216 97.1434 78.216V80.216C99.5578 80.216 101.55 79.1947 103.05 77.231L101.461 76.017ZM135.838 78.136L135.119 78.8314L135.13 78.8432L135.142 78.8546L135.838 78.136ZM135.586 70.36L136.565 70.5629L136.814 69.36H135.586V70.36ZM131.59 70.36V69.36H130.78L130.611 70.1521L131.59 70.36ZM129.754 79V80H130.563L130.732 79.2079L129.754 79ZM124.569 79L123.591 78.7926L123.335 80H124.569V79ZM128.386 61V60H127.575L127.407 60.7926L128.386 61ZM133.57 61L134.547 61.2102L134.807 60H133.57V61ZM132.022 68.2L131.044 67.9898L130.784 69.2H132.022V68.2ZM136.054 68.2V69.2H136.854L137.029 68.4195L136.054 68.2ZM137.674 61V60H136.874L136.698 60.7805L137.674 61ZM142.498 61L143.475 61.209L143.734 60H142.498V61ZM140.59 69.928L141.564 70.1545L141.566 70.1458L141.567 70.137L140.59 69.928ZM139.978 72.628L140.954 72.8417L140.954 72.8417L139.978 72.628ZM144.19 72.556V71.556H143.537L143.274 72.1533L144.19 72.556ZM145.702 72.556L146.648 72.8784L147.098 71.556H145.702V72.556ZM139.006 78.216C137.811 78.216 137.037 77.9048 136.533 77.4174L135.142 78.8546C136.126 79.8072 137.464 80.216 139.006 80.216V78.216ZM136.556 77.4406C136.025 76.8918 135.758 76.2329 135.758 75.4H133.758C133.758 76.7271 134.21 77.8922 135.119 78.8314L136.556 77.4406ZM135.758 75.4C135.758 74.8294 136.005 73.2633 136.565 70.5629L134.606 70.1571C134.062 72.7847 133.758 74.5786 133.758 75.4H135.758ZM135.586 69.36H131.59V71.36H135.586V69.36ZM130.611 70.1521L128.775 78.7921L130.732 79.2079L132.568 70.5679L130.611 70.1521ZM129.754 78H124.569V80H129.754V78ZM125.548 79.2074L129.364 61.2074L127.407 60.7926L123.591 78.7926L125.548 79.2074ZM128.386 62H133.57V60H128.386V62ZM132.592 60.7898L131.044 67.9898L132.999 68.4102L134.547 61.2102L132.592 60.7898ZM132.022 69.2H136.054V67.2H132.022V69.2ZM137.029 68.4195L138.649 61.2195L136.698 60.7805L135.078 67.9805L137.029 68.4195ZM137.674 62H142.498V60H137.674V62ZM141.52 60.791L139.612 69.719L141.567 70.137L143.475 61.209L141.52 60.791ZM139.615 69.7015C139.375 70.7364 139.17 71.6409 139.001 72.4143L140.954 72.8417C141.121 72.0791 141.324 71.1836 141.564 70.1545L139.615 69.7015ZM139.001 72.4143C138.835 73.1717 138.726 73.8006 138.726 74.212H140.726C140.726 74.0474 140.784 73.6203 140.954 72.8417L139.001 72.4143ZM138.726 74.212C138.726 74.8583 138.879 75.5287 139.361 76.0357C139.853 76.5517 140.519 76.724 141.166 76.724V74.724C141.01 74.724 140.916 74.7033 140.866 74.6856C140.821 74.6699 140.81 74.6569 140.81 74.6563C140.808 74.6547 140.789 74.6355 140.769 74.5709C140.747 74.5021 140.726 74.3877 140.726 74.212H138.726ZM141.166 76.724C142.091 76.724 142.913 76.3971 143.531 75.7068L142.04 74.3732C141.842 74.5949 141.584 74.724 141.166 74.724V76.724ZM143.531 75.7068C144.052 75.1248 144.571 74.1709 145.105 72.9587L143.274 72.1533C142.752 73.3411 142.335 74.0432 142.04 74.3732L143.531 75.7068ZM144.19 73.556H145.702V71.556H144.19V73.556ZM144.755 72.2336C143.286 76.5461 141.296 78.216 139.006 78.216V80.216C142.619 80.216 145.093 77.4459 146.648 72.8784L144.755 72.2336ZM145.3 77.992L144.623 78.7284L144.633 78.7372L145.3 77.992ZM144.22 72.556L145.188 72.807L145.194 72.7823L145.199 72.7574L144.22 72.556ZM146.596 61V60H145.78L145.616 60.7986L146.596 61ZM151.564 61L152.542 61.2057L152.796 60H151.564V61ZM148.9 73.672L149.836 74.0231L149.863 73.952L149.878 73.8777L148.9 73.672ZM152.284 75.364L152.944 76.1147L152.953 76.1074L152.961 76.0999L152.284 75.364ZM153.724 73.168L154.654 73.5352L154.654 73.5352L153.724 73.168ZM153.724 68.812L154.379 68.0563L153.792 67.5482L153.154 67.9898L153.724 68.812ZM151.564 68.74L150.918 69.5034L150.932 69.5151L150.946 69.5263L151.564 68.74ZM154.588 66.148L154.271 67.0967L154.643 67.2206L155 67.0589L154.588 66.148ZM160.096 63.16L159.583 62.3014L159.577 62.3051L160.096 63.16ZM163.84 61V60H163.59L163.37 60.1169L163.84 61ZM166.072 61L167.05 61.209L167.308 60H166.072V61ZM164.164 69.928L165.138 70.1545L165.14 70.1458L165.142 70.137L164.164 69.928ZM163.552 72.628L164.528 72.8417L164.528 72.8417L163.552 72.628ZM166.36 75.04L167.105 75.7068L167.105 75.7068L166.36 75.04ZM167.764 72.556V71.556H167.111L166.848 72.1533L167.764 72.556ZM169.276 72.556L170.222 72.8784L170.673 71.556H169.276V72.556ZM159.448 78.1L158.718 78.7839L158.723 78.7897L158.729 78.7954L159.448 78.1ZM160.348 65.14L161.324 65.3582L161.852 62.9932L159.81 64.2971L160.348 65.14ZM156.316 67.48L155.841 66.5995L154.886 67.1139L155.477 68.0242L156.316 67.48ZM156.28 74.68L157.181 75.1133L157.184 75.1066L156.28 74.68ZM153.544 77.884L152.956 77.0745L152.949 77.0802L153.544 77.884ZM149.116 78.216C147.646 78.216 146.641 77.8505 145.966 77.2468L144.633 78.7372C145.782 79.7655 147.321 80.216 149.116 80.216V78.216ZM145.976 77.2557C145.334 76.6656 144.968 75.8271 144.968 74.608H142.968C142.968 76.2689 143.489 77.6864 144.623 78.7283L145.976 77.2557ZM144.968 74.608C144.968 73.9663 145.042 73.3671 145.188 72.807L143.252 72.305C143.061 73.0409 142.968 73.8097 142.968 74.608H144.968ZM145.199 72.7574L147.575 61.2014L145.616 60.7986L143.24 72.3546L145.199 72.7574ZM146.596 62H151.564V60H146.596V62ZM150.585 60.7943L147.921 73.4663L149.878 73.8777L152.542 61.2057L150.585 60.7943ZM147.963 73.3209C147.822 73.6988 147.792 74.1982 147.792 74.68H149.792C149.792 74.4621 149.8 74.2959 149.813 74.1745C149.827 74.0437 149.842 74.0061 149.836 74.0231L147.963 73.3209ZM147.792 74.68C147.792 75.3514 147.98 76.0315 148.523 76.5262C149.048 77.0049 149.739 77.156 150.412 77.156V75.156C150.004 75.156 149.885 75.0611 149.87 75.0478C149.863 75.0415 149.848 75.0271 149.832 74.9822C149.813 74.9316 149.792 74.8372 149.792 74.68H147.792ZM150.412 77.156C151.356 77.156 152.206 76.7643 152.944 76.1147L151.623 74.6133C151.161 75.0197 150.763 75.156 150.412 75.156V77.156ZM152.961 76.0999C153.692 75.427 154.249 74.5595 154.654 73.5352L152.793 72.8008C152.478 73.6005 152.075 74.1969 151.607 74.6281L152.961 76.0999ZM154.654 73.5352C155.064 72.4949 155.264 71.3729 155.264 70.18H153.264C153.264 71.1471 153.103 72.0171 152.793 72.8008L154.654 73.5352ZM155.264 70.18C155.264 69.3711 155.012 68.6056 154.379 68.0563L153.069 69.5677C153.155 69.6424 153.264 69.7889 153.264 70.18H155.264ZM153.154 67.9898C153.012 68.0886 152.863 68.136 152.68 68.136V70.136C153.264 70.136 153.811 69.9674 154.293 69.6342L153.154 67.9898ZM152.68 68.136C152.507 68.136 152.35 68.0863 152.181 67.9537L150.946 69.5263C151.449 69.9217 152.036 70.136 152.68 70.136V68.136ZM152.21 67.9766C152.174 67.9461 152.096 67.8726 152.096 67.588H150.096C150.096 68.3114 150.33 69.0059 150.918 69.5034L152.21 67.9766ZM152.096 67.588C152.096 67.363 152.159 67.2693 152.284 67.181L151.131 65.547C150.44 66.0347 150.096 66.757 150.096 67.588H152.096ZM152.284 67.181C152.514 67.0191 152.778 66.932 153.112 66.932V64.932C152.39 64.932 151.718 65.1329 151.131 65.547L152.284 67.181ZM153.112 66.932C153.578 66.932 153.96 66.993 154.271 67.0967L154.904 65.1993C154.351 65.015 153.749 64.932 153.112 64.932V66.932ZM155 67.0589C156.586 66.3406 158.459 65.3228 160.614 64.0149L159.577 62.3051C157.46 63.5892 155.662 64.5634 154.175 65.2371L155 67.0589ZM160.608 64.0185C162.336 62.987 163.565 62.2783 164.309 61.8831L163.37 60.1169C162.578 60.5377 161.312 61.269 159.583 62.3015L160.608 64.0185ZM163.84 62H166.072V60H163.84V62ZM165.094 60.791L163.186 69.719L165.142 70.137L167.05 61.209L165.094 60.791ZM163.19 69.7015C162.949 70.7364 162.744 71.6409 162.575 72.4143L164.528 72.8417C164.695 72.0791 164.898 71.1836 165.138 70.1545L163.19 69.7015ZM162.575 72.4143C162.409 73.1717 162.3 73.8006 162.3 74.212H164.3C164.3 74.0474 164.358 73.6203 164.528 72.8417L162.575 72.4143ZM162.3 74.212C162.3 74.8583 162.453 75.5287 162.935 76.0357C163.427 76.5517 164.093 76.724 164.74 76.724V74.724C164.584 74.724 164.49 74.7033 164.44 74.6856C164.395 74.6699 164.384 74.6569 164.384 74.6563C164.382 74.6547 164.363 74.6355 164.343 74.5709C164.321 74.5021 164.3 74.3877 164.3 74.212H162.3ZM164.74 76.724C165.665 76.724 166.487 76.3971 167.105 75.7068L165.614 74.3732C165.416 74.5949 165.158 74.724 164.74 74.724V76.724ZM167.105 75.7068C167.626 75.1248 168.146 74.1709 168.679 72.9587L166.848 72.1533C166.326 73.3411 165.91 74.0432 165.614 74.3732L167.105 75.7068ZM167.764 73.556H169.276V71.556H167.764V73.556ZM168.329 72.2336C166.859 76.5512 164.878 78.216 162.616 78.216V80.216C166.209 80.216 168.669 77.4408 170.222 72.8784L168.329 72.2336ZM162.616 78.216C161.398 78.216 160.64 77.894 160.166 77.4046L158.729 78.7954C159.695 79.794 161.049 80.216 162.616 80.216V78.216ZM160.177 77.4161C159.64 76.8431 159.368 76.1556 159.368 75.292H157.368C157.368 76.6364 157.815 77.8209 158.718 78.7839L160.177 77.4161ZM159.368 75.292C159.368 74.9785 159.507 74.0251 159.844 72.2974C160.172 70.6186 160.664 68.3068 161.324 65.3582L159.372 64.9218C158.711 67.8772 158.214 70.2094 157.881 71.9146C157.558 73.5709 157.368 74.7415 157.368 75.292H159.368ZM159.81 64.2971C158.708 65.0003 157.386 65.7678 155.841 66.5995L156.79 68.3605C158.365 67.5122 159.731 66.7197 160.886 65.9829L159.81 64.2971ZM155.477 68.0242C155.912 68.6947 156.18 69.6822 156.18 71.08H158.18C158.18 69.4538 157.872 68.0413 157.155 66.9358L155.477 68.0242ZM156.18 71.08C156.18 72.0287 155.927 73.0827 155.375 74.2534L157.184 75.1066C157.832 73.7333 158.18 72.3873 158.18 71.08H156.18ZM155.378 74.2467C154.857 75.3318 154.059 76.2748 152.956 77.0746L154.131 78.6934C155.476 77.7172 156.503 76.5242 157.181 75.1133L155.378 74.2467ZM152.949 77.0802C151.949 77.8196 150.692 78.216 149.116 78.216V80.216C151.043 80.216 152.738 79.7244 154.138 78.6878L152.949 77.0802ZM168.745 77.848L168.056 78.5726L168.066 78.5814L168.745 77.848ZM168.241 68.02L169.192 68.3293L169.192 68.3293L168.241 68.02ZM171.409 62.872L172.111 63.585L172.117 63.5791L171.409 62.872ZM179.797 67.84L180.624 68.4028L180.624 68.4028L179.797 67.84ZM176.737 70.576L177.205 71.4602L177.211 71.4568L177.217 71.4533L176.737 70.576ZM172.669 71.728L172.603 70.7302L171.751 70.787L171.674 71.6375L172.669 71.728ZM179.077 73.888L180.061 74.0675L180.58 71.2237L178.415 73.139L179.077 73.888ZM172.921 70L171.944 69.7896L171.676 71.0331L172.948 70.9997L172.921 70ZM175.477 69.1L174.901 68.283L174.889 68.2913L175.477 69.1ZM177.421 66.904L176.546 66.4203L176.542 66.4285L177.421 66.904ZM174.757 64.888L173.88 64.4082L173.877 64.4131L174.757 64.888ZM172.849 78.216C171.27 78.216 170.173 77.808 169.425 77.1146L168.066 78.5814C169.286 79.712 170.925 80.216 172.849 80.216V78.216ZM169.435 77.1234C168.724 76.4474 168.269 75.3103 168.269 73.492H166.269C166.269 75.6097 166.799 77.3766 168.056 78.5726L169.435 77.1234ZM168.269 73.492C168.269 71.9646 168.569 70.2466 169.192 68.3293L167.29 67.7107C166.618 69.7774 166.269 71.7074 166.269 73.492H168.269ZM169.192 68.3293C169.792 66.4868 170.763 64.9101 172.111 63.5849L170.708 62.1591C169.127 63.7139 167.987 65.5692 167.29 67.7107L169.192 68.3293ZM172.117 63.5791C173.375 62.3204 174.972 61.676 176.989 61.676V59.676C174.494 59.676 172.372 60.4956 170.702 62.1649L172.117 63.5791ZM176.989 61.676C178.186 61.676 178.897 61.94 179.302 62.2934C179.681 62.6241 179.949 63.1722 179.949 64.132H181.949C181.949 62.7878 181.558 61.6079 180.617 60.7866C179.702 59.988 178.433 59.676 176.989 59.676V61.676ZM179.949 64.132C179.949 65.272 179.628 66.3124 178.971 67.2772L180.624 68.4028C181.503 67.1116 181.949 65.68 181.949 64.132H179.949ZM178.971 67.2772C178.297 68.2663 177.4 69.0738 176.257 69.6987L177.217 71.4533C178.619 70.6862 179.761 69.6697 180.624 68.4028L178.971 67.2772ZM176.27 69.6918C175.123 70.298 173.903 70.6435 172.603 70.7302L172.736 72.7258C174.316 72.6205 175.808 72.198 177.205 71.4602L176.27 69.6918ZM171.674 71.6375C171.626 72.1607 171.597 72.5641 171.597 72.808H173.597C173.597 72.6679 173.617 72.3513 173.665 71.8185L171.674 71.6375ZM171.597 72.808C171.597 73.8995 171.796 74.9003 172.354 75.6475C172.953 76.4494 173.84 76.796 174.829 76.796V74.796C174.331 74.796 174.102 74.6446 173.957 74.4505C173.771 74.2017 173.597 73.7085 173.597 72.808H171.597ZM174.829 76.796C175.681 76.796 176.547 76.5679 177.414 76.1615L176.565 74.3505C175.896 74.6641 175.322 74.796 174.829 74.796V76.796ZM177.414 76.1615C178.267 75.7617 179.043 75.2534 179.74 74.637L178.415 73.139C177.864 73.6266 177.248 74.0303 176.565 74.3505L177.414 76.1615ZM178.094 73.7085C177.798 75.3316 177.199 76.4276 176.384 77.1241C175.574 77.8176 174.432 78.216 172.849 78.216V80.216C174.771 80.216 176.419 79.7264 177.685 78.6439C178.946 77.5644 179.709 75.9964 180.061 74.0675L178.094 73.7085ZM172.948 70.9997C174.077 70.9699 175.123 70.5946 176.066 69.9087L174.889 68.2913C174.248 68.7574 173.59 68.9821 172.895 69.0003L172.948 70.9997ZM176.054 69.917C176.997 69.2511 177.749 68.4017 178.301 67.3795L176.542 66.4285C176.134 67.1823 175.589 67.7969 174.901 68.283L176.054 69.917ZM178.297 67.3877C178.878 66.3366 179.177 65.2232 179.177 64.06H177.177C177.177 64.8648 176.973 65.6474 176.546 66.4203L178.297 67.3877ZM179.177 64.06C179.177 63.4989 179.098 62.9105 178.806 62.4324C178.466 61.874 177.909 61.584 177.277 61.584V63.584C177.288 63.584 177.249 63.5853 177.192 63.5537C177.132 63.5211 177.103 63.4814 177.099 63.4736C177.098 63.4724 177.12 63.5096 177.141 63.6134C177.162 63.716 177.177 63.8618 177.177 64.06H179.177ZM177.277 61.584C176.53 61.584 175.881 61.9301 175.343 62.422C174.81 62.909 174.328 63.5898 173.88 64.4082L175.635 65.3678C176.027 64.6502 176.385 64.179 176.692 63.898C176.994 63.6219 177.184 63.584 177.277 63.584V61.584ZM173.877 64.4131C173.011 66.0181 172.369 67.813 171.944 69.7896L173.899 70.2104C174.29 68.395 174.872 66.7819 175.637 65.3629L173.877 64.4131Z" fill="white"/>
</g>
<g filter="url(#filter1_d_17_13)">
<path d="M34.8994 95.5615V103.12C36.1396 103.12 36.7598 102.461 36.7598 101.143V97.8467C36.7598 96.5186 36.9795 95.7568 37.4189 95.5615H43.1172C42.6777 96.1963 42.458 97.1338 42.458 98.374V101.084C42.458 102.031 42.0723 102.817 41.3008 103.442C41.0176 103.677 40.4219 104.009 39.5137 104.438C38.9277 104.722 38.2686 104.873 37.5361 104.893C37.8779 104.951 38.5176 105.112 39.4551 105.376C41.4766 106.021 42.4873 107.148 42.4873 108.76V112.173C42.4873 113.423 42.707 114.365 43.1465 115H37.4482C37.0088 114.404 36.7891 113.643 36.7891 112.715V108.613C36.7891 107.295 36.1592 106.636 34.8994 106.636V115H29.0547V95.5615H34.8994ZM58.1172 109.873C58.1172 111.855 57.6826 113.208 56.8135 113.931C55.9541 114.644 54.0791 115 51.1885 115H44.4062V95.5615H51.3936C53.7861 95.5615 55.4316 95.957 56.3301 96.748C57.2383 97.5391 57.6924 98.8916 57.6924 100.806C57.6924 103.003 56.5498 104.253 54.2646 104.556C55.4561 104.751 56.3936 105.22 57.0771 105.962C57.7705 106.694 58.1172 107.617 58.1172 108.73V109.873ZM50.2803 102.783C51.1787 102.783 51.7256 102.671 51.9209 102.446C52.126 102.222 52.2285 101.777 52.2285 101.113C52.2285 100.557 52.1162 100.171 51.8916 99.9561C51.667 99.7412 51.1299 99.6338 50.2803 99.6338V102.783ZM52.2285 108.965V108.306C52.2285 107.466 52.1162 106.943 51.8916 106.738C51.667 106.523 51.1299 106.416 50.2803 106.416V110.913C51.0713 110.913 51.5938 110.801 51.8477 110.576C52.1016 110.342 52.2285 109.805 52.2285 108.965ZM65.1338 103.091H59.582V101.787C59.582 100.283 59.7529 99.126 60.0947 98.3154C60.4463 97.4951 61.1445 96.7725 62.1895 96.1475C63.2344 95.5225 64.5918 95.21 66.2617 95.21C68.2637 95.21 69.7725 95.5664 70.7881 96.2793C71.8037 96.9824 72.4141 97.8516 72.6191 98.8867C72.8242 99.9121 72.9268 102.031 72.9268 105.244V115H67.1699V113.271C66.8086 113.965 66.3398 114.487 65.7637 114.839C65.1973 115.181 64.5186 115.352 63.7275 115.352C62.6924 115.352 61.7402 115.063 60.8711 114.487C60.0117 113.901 59.582 112.627 59.582 110.664V109.067C59.582 107.612 59.8115 106.621 60.2705 106.094C60.7295 105.566 61.8672 104.951 63.6836 104.248C65.627 103.486 66.667 102.974 66.8037 102.71C66.9404 102.446 67.0088 101.909 67.0088 101.099C67.0088 100.083 66.9307 99.4238 66.7744 99.1211C66.6279 98.8086 66.3789 98.6523 66.0273 98.6523C65.627 98.6523 65.3779 98.7842 65.2803 99.0479C65.1826 99.3018 65.1338 99.9707 65.1338 101.055V103.091ZM67.0088 105.757C66.0615 106.45 65.5098 107.031 65.3535 107.5C65.207 107.969 65.1338 108.643 65.1338 109.521C65.1338 110.527 65.1973 111.177 65.3242 111.47C65.4609 111.763 65.7246 111.909 66.1152 111.909C66.4863 111.909 66.7256 111.797 66.833 111.572C66.9502 111.338 67.0088 110.732 67.0088 109.756V105.757ZM80.9834 95.5615L80.8809 97.2754C81.4082 96.582 81.9893 96.0645 82.624 95.7227C83.2588 95.3809 83.9521 95.21 84.7041 95.21C85.6221 95.21 86.4131 95.459 87.0771 95.957C87.751 96.4453 88.1709 97.0117 88.3369 97.6562C88.5029 98.3008 88.5859 99.3945 88.5859 100.938V109.126C88.5859 110.894 88.4785 112.153 88.2637 112.905C88.0586 113.647 87.6289 114.243 86.9746 114.692C86.3301 115.132 85.5488 115.352 84.6309 115.352C83.8984 115.352 83.2197 115.181 82.5947 114.839C81.9697 114.497 81.3984 113.989 80.8809 113.315V117.769H74.9629V95.5615H80.9834ZM82.668 101.216C82.668 100.015 82.624 99.2871 82.5361 99.0332C82.4482 98.7793 82.2041 98.6523 81.8037 98.6523C81.4131 98.6523 81.1592 98.7988 81.042 99.0918C80.9346 99.3848 80.8809 100.093 80.8809 101.216V109.272C80.8809 110.444 80.9395 111.177 81.0566 111.47C81.1738 111.763 81.4277 111.909 81.8184 111.909C82.1992 111.909 82.4336 111.777 82.5215 111.514C82.6191 111.24 82.668 110.586 82.668 109.551V101.216ZM102.268 95.5615V99.6338H98.8838V115H92.9805V99.6338H89.582V95.5615H102.268ZM108.757 103.091H103.205V101.787C103.205 100.283 103.376 99.126 103.718 98.3154C104.069 97.4951 104.768 96.7725 105.812 96.1475C106.857 95.5225 108.215 95.21 109.885 95.21C111.887 95.21 113.396 95.5664 114.411 96.2793C115.427 96.9824 116.037 97.8516 116.242 98.8867C116.447 99.9121 116.55 102.031 116.55 105.244V115H110.793V113.271C110.432 113.965 109.963 114.487 109.387 114.839C108.82 115.181 108.142 115.352 107.351 115.352C106.315 115.352 105.363 115.063 104.494 114.487C103.635 113.901 103.205 112.627 103.205 110.664V109.067C103.205 107.612 103.435 106.621 103.894 106.094C104.353 105.566 105.49 104.951 107.307 104.248C109.25 103.486 110.29 102.974 110.427 102.71C110.563 102.446 110.632 101.909 110.632 101.099C110.632 100.083 110.554 99.4238 110.397 99.1211C110.251 98.8086 110.002 98.6523 109.65 98.6523C109.25 98.6523 109.001 98.7842 108.903 99.0479C108.806 99.3018 108.757 99.9707 108.757 101.055V103.091ZM110.632 105.757C109.685 106.45 109.133 107.031 108.977 107.5C108.83 107.969 108.757 108.643 108.757 109.521C108.757 110.527 108.82 111.177 108.947 111.47C109.084 111.763 109.348 111.909 109.738 111.909C110.109 111.909 110.349 111.797 110.456 111.572C110.573 111.338 110.632 110.732 110.632 109.756V105.757ZM127.58 115V99.6338H125.485V109.448C125.485 111.235 125.28 112.515 124.87 113.286C124.46 114.048 123.811 114.526 122.922 114.722C122.043 114.907 120.598 115 118.586 115H117.619V111.821C118.371 111.812 118.889 111.719 119.172 111.543C119.455 111.357 119.597 110.718 119.597 109.624V95.5615H133.454V115H127.58ZM149.201 109.448C149.201 111.226 148.991 112.5 148.571 113.271C148.161 114.043 147.512 114.526 146.623 114.722C145.734 114.907 144.284 115 142.272 115H135.432V95.5615H141.306V102.036H142.272C144.157 102.036 145.563 102.148 146.491 102.373C147.419 102.598 148.103 103.091 148.542 103.853C148.981 104.614 149.201 105.82 149.201 107.471V109.448ZM143.312 108.73V107.954C143.312 106.948 143.21 106.338 143.005 106.123C142.81 105.908 142.243 105.786 141.306 105.757V110.913C142.087 110.913 142.614 110.815 142.888 110.62C143.171 110.415 143.312 109.785 143.312 108.73ZM156.877 115H151.003V95.5615H156.877V115Z" fill="#C71800"/>
</g>
<defs>
<filter id="filter0_d_17_13" x="0.216003" y="52" width="180.733" height="42" filterUnits="userSpaceOnUse" color-interpolation-filters="sRGB">
<feFlood flood-opacity="0" result="BackgroundImageFix"/>
<feColorMatrix in="SourceAlpha" type="matrix" values="0 0 0 0 0 0 0 0 0 0 0 0 0 0 0 0 0 0 127 0" result="hardAlpha"/>
<feOffset dx="-3" dy="4"/>
<feGaussianBlur stdDeviation="1"/>
<feComposite in2="hardAlpha" operator="out"/>
<feColorMatrix type="matrix" values="0 0 0 0 0.121569 0 0 0 0 0.14902 0 0 0 0 0.352941 0 0 0 0.95 0"/>
<feBlend mode="normal" in2="BackgroundImageFix" result="effect1_dropShadow_17_13"/>
<feBlend mode="normal" in="SourceGraphic" in2="effect1_dropShadow_17_13" result="shape"/>
</filter>
<filter id="filter1_d_17_13" x="25.0547" y="95.21" width="131.822" height="27.5586" filterUnits="userSpaceOnUse" color-interpolation-filters="sRGB">
<feFlood flood-opacity="0" result="BackgroundImageFix"/>
<feColorMatrix in="SourceAlpha" type="matrix" values="0 0 0 0 0 0 0 0 0 0 0 0 0 0 0 0 0 0 127 0" result="hardAlpha"/>
<feOffset dx="-2" dy="3"/>
<feGaussianBlur stdDeviation="1"/>
<feComposite in2="hardAlpha" operator="out"/>
<feColorMatrix type="matrix" values="0 0 0 0 0.121569 0 0 0 0 0.14902 0 0 0 0 0.352941 0 0 0 1 0"/>
<feBlend mode="normal" in2="BackgroundImageFix" result="effect1_dropShadow_17_13"/>
<feBlend mode="normal" in="SourceGraphic" in2="effect1_dropShadow_17_13" result="shape"/>
</filter>
</defs>
</svg>
