<svg width="183" height="144" viewBox="0 0 183 144" fill="none" xmlns="http://www.w3.org/2000/svg">
<path d="M134.101 122L154.818 39.5822L13.6239 17.1922L45.6987 122H134.101Z" stroke="#EEC453" stroke-width="10" stroke-linejoin="round"/>
<path d="M8.71483 53.7742C8.31482 52.2218 9.20602 50.6292 10.7384 50.1581L150.886 7.07234C153.125 6.3838 155.254 8.41368 154.673 10.6836L124.077 130.244C123.738 131.571 122.541 132.5 121.171 132.5H31.325C29.9564 132.5 28.7614 131.574 28.4199 130.249L8.71483 53.7742Z" fill="#9FCDAD"/>
<circle cx="48" cy="60" r="30" fill="#FFFBE5"/>
<path fill-rule="evenodd" clip-rule="evenodd" d="M30.3977 124L-2.86102e-06 106.92L30.3977 90V99.1071L107 99.7143V115.42L30.3977 114.893V124Z" fill="#698A6A"/>
<path fill-rule="evenodd" clip-rule="evenodd" d="M120.307 112L149 128.076L120.307 144V135.429L48 134.857V120.076L120.307 120.571V112Z" fill="#468F9C"/>
<g filter="url(#filter0_d_17_12)">
<path d="M51.7934 73.5131C50.8675 73.8341 50.0741 73.8658 49.4132 73.6081C48.7712 73.3438 48.329 72.8621 48.0866 72.1629C47.9424 71.7472 47.8858 71.2482 47.9168 70.6659C48.6818 71.1627 49.4327 71.2834 50.1697 71.0279C51.1145 70.7003 51.64 69.9571 51.7463 68.7984C51.8649 67.6142 51.7015 66.3796 51.2559 65.0946C50.4501 62.7704 49.1496 61.9194 47.3544 62.5419C46.8442 62.7188 46.4234 62.9705 46.0921 63.297L47.4597 74.4759L43.3781 75.8911L40.8948 55.5417C39.7174 55.9923 38.9582 56.7635 38.6171 57.8555C38.2949 58.941 38.504 60.5513 39.2443 62.6866C39.4867 63.3858 39.7232 63.8542 39.9538 64.0918C40.1778 64.3105 40.2963 64.4387 40.3094 64.4765C39.289 64.8303 38.4516 64.8878 37.7973 64.6489C37.1553 64.3847 36.664 63.7612 36.3233 62.7786C35.8581 61.437 35.7662 60.1035 36.0476 58.7782C36.3224 57.434 37.0599 56.1728 38.2602 54.9946C39.4793 53.8098 41.2038 52.8309 43.4336 52.0578C43.8682 51.9071 44.5554 51.7217 45.4952 51.5017C47.2606 51.0378 48.4646 50.6944 49.107 50.4717C50.1086 50.1244 50.9196 49.7162 51.5401 49.2471C51.554 49.3481 51.6189 49.749 51.7348 50.4496C51.8508 51.1503 51.7668 51.7933 51.4828 52.3786C51.2113 52.9385 50.7259 53.3396 50.0267 53.582C48.6473 54.0603 46.985 54.425 45.0399 54.676L45.9027 61.7434C46.8997 61.0167 47.8044 60.5125 48.617 60.2307C50.2043 59.6804 51.5618 59.7495 52.6896 60.438C53.8297 61.1011 54.675 62.2263 55.2253 63.8136C55.5857 64.8529 55.7455 66.0464 55.7047 67.3941C55.6763 68.7164 55.3527 69.9505 54.734 71.0964C54.1152 72.2424 53.135 73.0479 51.7934 73.5131ZM65.9227 76.0124C65.0156 76.3269 64.1779 76.3528 63.4094 76.09C62.6409 75.8272 62.1027 75.2518 61.7948 74.3637C61.4213 73.2866 61.5546 72.2667 62.1945 71.3039C62.841 70.36 63.7597 69.4382 64.9506 68.5384L64.7601 66.8899C64.4217 67.6846 64.0084 68.2936 63.5202 68.7169C63.0319 69.1402 62.4949 69.4534 61.9091 69.6565C61.002 69.971 60.1668 69.9431 59.4034 69.5727C58.6588 69.1958 58.09 68.4405 57.6969 67.3067C57.5331 66.8343 57.3957 66.194 57.2848 65.3857L56.0576 55.6188L60.1392 54.2036L61.4398 64.5484C61.4617 64.7948 61.5153 65.0408 61.6005 65.2865C61.8887 66.1179 62.3163 66.4353 62.8832 66.2388C63.3745 66.0684 63.7371 65.7099 63.9709 65.1631C64.1981 64.5975 64.3039 63.9258 64.2882 63.148L63.0587 53.1913L67.1403 51.7762L68.8942 65.901C69.6964 65.2842 70.2667 64.5784 70.605 63.7837C70.9434 62.989 71.0951 61.9309 71.0603 60.6094L72.2508 60.1967C72.3237 62.0553 72.0631 63.5322 71.469 64.6272C70.8684 65.7034 70.0693 66.5732 69.0716 67.2366L69.354 69.4248C69.6116 71.3888 69.3954 72.8715 68.7053 73.8728C68.0218 74.893 67.0942 75.6062 65.9227 76.0124ZM64.5042 74.0276C64.8254 73.9162 65.0619 73.5908 65.2135 73.0513C65.3652 72.5119 65.3852 71.8064 65.2735 70.9349L65.1586 70.0539C63.5426 71.3763 62.8951 72.5004 63.2161 73.4263C63.3013 73.672 63.4617 73.8598 63.6973 73.9898C63.9329 74.1198 64.2018 74.1324 64.5042 74.0276ZM95.7011 52.0659C95.7227 55.9745 94.5714 58.3318 92.2471 59.1376C91.17 59.5111 90.2403 59.5159 89.4579 59.1521C88.6879 58.7629 88.1555 58.1431 87.8607 57.2928C87.6052 56.5558 87.3679 55.2304 87.1488 53.3166L86.6932 49.3468L85.1303 61.4147L81.7857 62.5743L76.9025 50.9633C76.7 51.4781 76.5975 52.1592 76.595 53.0068C76.586 53.8355 76.6781 54.9254 76.8714 56.2767C77.1545 58.253 77.3152 59.7849 77.3535 60.8723C77.4108 61.9532 77.2666 62.8499 76.9209 63.5625C76.5942 64.2685 75.9962 64.7722 75.127 65.0736C74.1065 65.4274 73.1953 65.394 72.3933 64.9735C71.5659 64.5407 70.9949 63.8708 70.6804 62.9638C70.4577 62.3213 70.432 61.7587 70.6033 61.2759C70.768 60.7743 71.1149 60.4317 71.644 60.2483C72.0976 60.091 72.5152 60.105 72.8969 60.2902C73.2786 60.4753 73.5383 60.7663 73.6759 61.1632C73.8331 61.6167 73.8409 62.0056 73.6994 62.3298C73.5512 62.6352 73.3194 62.8214 73.004 62.8885C73.253 63.6065 73.7459 63.8378 74.4829 63.5823C75.012 63.3988 75.3811 63.0592 75.5902 62.5633C75.7927 62.0485 75.8629 61.3045 75.8006 60.3312C75.7572 59.3514 75.5951 57.9681 75.3143 56.1815C74.898 53.6375 74.9417 51.749 75.4456 50.5159C75.9618 49.2573 76.9002 48.3922 78.2607 47.9205L79.5362 47.4782L83.8486 58.1758L85.4319 45.4341L90.0237 43.842L90.9587 51.3923C91.0515 52.2704 91.1365 53.0347 91.2139 53.6852C91.2913 54.3358 91.3693 54.7744 91.4479 55.0012C91.7231 55.7948 92.2386 56.0606 92.9945 55.7986C93.5236 55.6151 93.8865 55.2882 94.0833 54.8178C94.28 54.3473 94.4225 53.5677 94.5106 52.4787L95.7011 52.0659ZM99.7343 56.5417C98.6572 56.9151 97.6318 56.8579 96.6583 56.3699C95.6847 55.8819 94.926 54.8537 94.3822 53.2853C93.8974 51.8869 93.6636 50.3275 93.6809 48.6069C93.7105 46.8608 94.0899 45.2687 94.819 43.8305C95.5604 42.3668 96.6964 41.3696 98.2271 40.8389C99.0018 40.5703 99.624 40.5028 100.094 40.6363C100.563 40.7698 100.873 41.0539 101.024 41.4885L101.093 41.6869L100.884 40.0765L104.966 38.6613L106.266 49.0061C106.289 49.3157 106.356 49.6312 106.467 49.9524C106.749 50.765 107.277 51.0369 108.052 50.7683C108.581 50.5849 108.949 50.182 109.157 49.5596C109.383 48.9307 109.472 48.1801 109.424 47.3079L110.615 46.8951C110.623 49.1783 110.235 50.8686 109.452 51.9659C108.68 53.0378 107.775 53.7539 106.735 54.1142C105.942 54.3894 105.224 54.3949 104.582 54.1306C103.952 53.8409 103.443 53.2872 103.053 52.4696C102.774 53.4344 102.379 54.2804 101.87 55.0075C101.372 55.7093 100.66 56.2206 99.7343 56.5417ZM100.623 53.1534C101.096 52.9897 101.483 52.6118 101.786 52.02C102.101 51.4027 102.21 50.6771 102.111 49.8434L101.251 42.9658C101.165 42.7202 100.989 42.5167 100.721 42.3555C100.447 42.1753 100.112 42.1541 99.7151 42.2917C98.9592 42.5537 98.4329 43.2337 98.1361 44.3314C97.8328 45.4103 97.7273 46.6323 97.8196 47.9974C97.9053 49.3436 98.112 50.4891 98.4396 51.434C98.7672 52.3788 99.1091 52.9376 99.4654 53.1104C99.8406 53.2767 100.227 53.291 100.623 53.1534ZM113.577 51.7421C112.405 52.1484 111.457 52.1597 110.731 51.7763C109.98 51.3805 109.457 50.7575 109.162 49.9071C108.9 49.1513 108.858 48.5098 109.035 47.9827C109.212 47.4556 109.537 47.1101 110.009 46.9463C110.425 46.8022 110.811 46.8165 111.167 46.9894C111.151 47.7359 111.244 48.4021 111.447 48.9879C111.637 49.5359 111.882 49.9061 112.181 50.0986C112.481 50.2911 112.763 50.3414 113.028 50.2497C113.538 50.0728 113.882 49.4773 114.059 48.4632C114.237 47.449 114.257 46.2565 114.121 44.8856C113.984 43.5147 113.723 42.2719 113.336 41.157C112.648 39.1728 111.728 38.3806 110.575 38.7803C110.046 38.9637 109.68 39.2812 109.476 39.7327C109.273 40.1842 109.158 40.8276 109.13 41.6629L107.656 42.1739C107.593 40.6503 107.796 39.405 108.265 38.438C108.753 37.4644 109.63 36.7581 110.897 36.3192C112.181 35.8736 113.333 35.9294 114.352 36.4864C115.371 37.0434 116.119 38.0117 116.597 39.3911C116.755 39.8446 116.89 40.3269 117.004 40.8378L118.704 40.2482L117.929 34.1665L121.728 32.8496L122.503 38.9312L124.09 38.3809C124.004 36.4844 124.25 34.8117 124.827 33.3626C125.404 31.9136 126.41 30.9401 127.847 30.4422C128.905 30.0753 129.74 30.0716 130.351 30.4311C130.975 30.7652 131.415 31.3007 131.67 32.0376C131.9 32.699 131.935 33.2584 131.776 33.7157C131.636 34.1664 131.358 34.4639 130.942 34.608C130.602 34.7259 130.232 34.7272 129.832 34.6118C129.805 33.9227 129.706 33.3325 129.536 32.8412C129.411 32.4822 129.256 32.2184 129.071 32.0499C128.885 31.8813 128.689 31.8331 128.481 31.9051C128.008 32.0689 127.677 32.6706 127.487 33.7102C127.31 34.7243 127.289 35.9169 127.426 37.2877C127.556 38.6397 127.814 39.8732 128.201 40.9881C128.548 41.9896 128.996 42.6705 129.544 43.0307C130.092 43.391 130.688 43.4598 131.33 43.237C132.048 42.988 132.722 42.4581 133.351 41.6473C133.974 40.8176 134.41 39.7877 134.661 38.5576L135.625 38.2235C135.474 39.8635 134.955 41.4193 134.068 42.891C133.181 44.3628 132.039 45.341 130.64 45.8259C129.355 46.2714 128.204 46.2156 127.185 45.6586C126.166 45.1016 125.418 44.1334 124.939 42.7539C124.599 41.7713 124.389 40.9231 124.311 40.2093L122.695 40.7695L123.637 48.0636L119.839 49.3805L118.926 42.0766L117.338 42.6269C117.61 44.692 117.462 46.5849 116.894 48.3058C116.327 50.0267 115.221 51.1721 113.577 51.7421ZM146.537 40.3142C145.46 40.6876 144.53 40.6924 143.748 40.3287C142.978 39.9394 142.445 39.3196 142.151 38.4693C141.961 37.9213 141.719 36.5232 141.427 34.275L138.28 35.3659L139.193 42.6698L135.112 44.085L133.203 28.871L137.284 27.4558L138.031 33.5473L141.205 32.4466L140.515 26.3354L144.314 25.0185L145.249 32.5688C145.341 33.4469 145.426 34.2112 145.504 34.8617C145.581 35.5123 145.659 35.9509 145.738 36.1777C146.013 36.9714 146.529 37.2371 147.284 36.9751C147.813 36.7916 148.176 36.4647 148.373 35.9943C148.57 35.5239 148.712 34.7442 148.8 33.6552L149.991 33.2425C150.013 37.1511 148.861 39.5083 146.537 40.3142ZM154.497 37.5542C153.212 37.9997 152.099 38.0257 151.158 37.6322C150.237 37.2321 149.579 36.4652 149.186 35.3314C148.989 34.7645 148.869 34.2031 148.824 33.647L147.54 23.8998L151.452 22.5435L152.814 33.2481C152.809 33.4189 152.873 33.6933 153.004 34.0712C153.272 34.846 153.832 35.0859 154.682 34.7911C155.192 34.6142 155.612 34.236 155.94 33.6565C156.262 33.0581 156.44 32.3507 156.474 31.5343C156.509 30.718 156.379 29.8847 156.084 29.0343C155.92 28.5619 155.654 28.252 155.285 28.1047C155.098 28.3599 154.854 28.5399 154.552 28.6448C154.23 28.7561 153.901 28.7538 153.565 28.6376C153.247 28.5149 153.019 28.2552 152.882 27.8584C152.738 27.4426 152.787 27.0657 153.029 26.7276C153.272 26.3894 153.601 26.1483 154.017 26.0042C154.452 25.8535 154.859 25.7758 155.238 25.7713C156.257 24.804 157.431 23.5186 158.759 21.915C159.838 20.6308 160.624 19.7232 161.117 19.1923L162.875 18.583L163.81 26.1333C163.902 27.0114 163.987 27.7757 164.065 28.4262C164.142 29.0768 164.22 29.5154 164.299 29.7422C164.574 30.5358 165.09 30.8016 165.845 30.5395C166.375 30.3561 166.737 30.0292 166.934 29.5587C167.131 29.0883 167.273 28.3087 167.362 27.2197L168.552 26.8069C168.574 30.7155 167.432 33.0695 165.126 33.8688C164.03 34.2488 163.097 34.2442 162.327 33.855C161.551 33.4468 161.012 32.8081 160.71 31.9389C160.475 31.2586 160.07 28.4141 159.498 23.4052C158.806 24.28 157.961 25.2611 156.962 26.3483C157.658 26.8902 158.213 27.7564 158.625 28.9469C158.933 29.835 159.025 30.8618 158.899 32.0271C158.768 33.1735 158.341 34.2633 157.62 35.2966C156.918 36.3234 155.877 37.0759 154.497 37.5542ZM173.184 31.0751C171.805 31.5533 170.603 31.5678 169.579 31.1183C168.549 30.65 167.765 29.6411 167.228 28.0916C166.776 26.7877 166.533 25.2631 166.499 23.5178C166.466 21.7725 166.829 20.1332 167.588 18.5997C168.341 17.0474 169.606 15.9633 171.382 15.3474C173.461 14.6267 174.815 15.1734 175.444 16.9874C175.811 18.0456 175.846 19.1236 175.549 20.2214C175.252 21.3192 174.698 22.3157 173.887 23.211C173.069 24.0873 172.106 24.7598 170.998 25.2285C171.104 25.6573 171.184 25.9473 171.236 26.0985C171.78 27.6669 172.638 28.248 173.809 27.8418C174.338 27.6583 174.856 27.3201 175.363 26.827C175.869 26.3339 176.293 25.7848 176.633 25.1799C177.093 28.1534 175.943 30.1185 173.184 31.0751ZM170.725 23.7992C171.436 23.5313 172.025 23.0625 172.492 22.3928C172.977 21.7165 173.287 20.9633 173.423 20.1331C173.571 19.2774 173.51 18.4622 173.242 17.6875C172.973 16.9127 172.602 16.6072 172.13 16.771C171.469 17.0004 171.017 17.8343 170.775 19.273C170.545 20.6863 170.528 22.195 170.725 23.7992Z" fill="#C71800"/>
<path d="M49.4132 73.6081L49.0325 74.5328L49.0412 74.5363L49.0499 74.5397L49.4132 73.6081ZM47.9168 70.6659L48.4615 69.8273L47.0101 68.8847L46.9182 70.6128L47.9168 70.6659ZM51.7463 68.7984L50.7513 68.6987L50.7505 68.707L51.7463 68.7984ZM46.0921 63.297L45.3902 62.5848L45.0398 62.9302L45.0995 63.4185L46.0921 63.297ZM47.4597 74.4759L47.7873 75.4207L48.5503 75.1561L48.4523 74.3545L47.4597 74.4759ZM43.3781 75.8911L42.3854 76.0122L42.5354 77.2416L43.7056 76.8359L43.3781 75.8911ZM40.8948 55.5417L41.8874 55.4206L41.7324 54.1504L40.5374 54.6078L40.8948 55.5417ZM38.6171 57.8555L37.6626 57.5574L37.6604 57.5642L37.6584 57.571L38.6171 57.8555ZM39.9538 64.0918L39.2361 64.7882L39.2455 64.7979L39.2552 64.8073L39.9538 64.0918ZM40.3094 64.4765L40.637 65.4213L41.5818 65.0937L41.2542 64.1489L40.3094 64.4765ZM37.7973 64.6489L37.4166 65.5737L37.4354 65.5814L37.4544 65.5883L37.7973 64.6489ZM36.0476 58.7782L37.0258 58.9859L37.0273 58.9785L36.0476 58.7782ZM38.2602 54.9946L37.5632 54.2774L37.5597 54.281L38.2602 54.9946ZM45.4952 51.5017L45.7231 52.4754L45.7363 52.4723L45.7493 52.4689L45.4952 51.5017ZM51.5401 49.2471L52.5308 49.1111L52.2988 47.4198L50.937 48.4494L51.5401 49.2471ZM51.7348 50.4496L52.7214 50.2864L52.7214 50.2864L51.7348 50.4496ZM45.0399 54.676L44.9119 53.6843L43.9269 53.8114L44.0473 54.7972L45.0399 54.676ZM45.9027 61.7434L44.9101 61.8645L45.1163 63.554L46.4918 62.5515L45.9027 61.7434ZM52.6896 60.438L52.1685 61.2915L52.1776 61.2971L52.1869 61.3025L52.6896 60.438ZM55.7047 67.3941L54.7051 67.3639L54.705 67.3727L55.7047 67.3941ZM51.4658 72.5683C50.6791 72.8411 50.1443 72.8198 49.7765 72.6764L49.0499 74.5397C50.0039 74.9118 51.0559 74.8272 52.121 74.4579L51.4658 72.5683ZM49.7938 72.6833C49.4359 72.536 49.1869 72.284 49.0314 71.8353L47.1417 72.4905C47.471 73.4402 48.1065 74.1516 49.0325 74.5328L49.7938 72.6833ZM49.0314 71.8353C48.941 71.5745 48.8892 71.2119 48.9154 70.719L46.9182 70.6128C46.8825 71.2845 46.9439 71.9199 47.1417 72.4905L49.0314 71.8353ZM47.3721 71.5046C48.3465 72.1374 49.4173 72.3471 50.4973 71.9727L49.8421 70.0831C49.4481 70.2196 49.017 70.1881 48.4615 69.8273L47.3721 71.5046ZM50.4973 71.9727C51.1466 71.7476 51.6936 71.3611 52.0889 70.8022C52.4776 70.2525 52.6773 69.5962 52.7421 68.8897L50.7505 68.707C50.709 69.1592 50.5928 69.4539 50.456 69.6474C50.3257 69.8316 50.1376 69.9806 49.8421 70.0831L50.4973 71.9727ZM52.7413 68.898C52.8763 67.5502 52.687 66.1695 52.2008 64.767L50.3111 65.4222C50.7159 66.5896 50.8535 67.6781 50.7513 68.6987L52.7413 68.898ZM52.2008 64.767C51.7648 63.5096 51.1393 62.4756 50.2237 61.8764C49.2562 61.2434 48.1447 61.2095 47.0268 61.597L47.682 63.4867C48.3593 63.2519 48.7956 63.3321 49.1286 63.55C49.5135 63.8018 49.9412 64.3554 50.3111 65.4222L52.2008 64.767ZM47.0268 61.597C46.3986 61.8149 45.8432 62.1383 45.3902 62.5848L46.7941 64.0092C47.0037 63.8026 47.2898 63.6227 47.682 63.4867L47.0268 61.597ZM45.0995 63.4185L46.4671 74.5973L48.4523 74.3545L47.0847 63.1756L45.0995 63.4185ZM47.1321 73.5311L43.0505 74.9463L43.7056 76.8359L47.7873 75.4207L47.1321 73.5311ZM44.3707 75.77L41.8874 55.4206L39.9021 55.6628L42.3854 76.0122L44.3707 75.77ZM40.5374 54.6078C39.1075 55.155 38.105 56.1408 37.6626 57.5574L39.5716 58.1537C39.8113 57.3863 40.3274 56.8296 41.2522 56.4757L40.5374 54.6078ZM37.6584 57.571C37.2414 58.976 37.5475 60.8453 38.2995 63.0142L40.1891 62.359C39.4604 60.2573 39.3484 58.906 39.5757 58.1401L37.6584 57.571ZM38.2995 63.0142C38.5448 63.7218 38.8388 64.3788 39.2361 64.7882L40.6714 63.3954C40.6076 63.3296 40.4286 63.0498 40.1891 62.359L38.2995 63.0142ZM39.2552 64.8073C39.3629 64.9125 39.4343 64.9853 39.4764 65.0308C39.4862 65.0414 39.4928 65.0488 39.4968 65.0534C39.5011 65.0583 39.5003 65.0576 39.4963 65.0525C39.4934 65.0489 39.4799 65.0319 39.4624 65.005C39.4533 64.9912 39.4395 64.9691 39.4241 64.9403C39.4098 64.9135 39.3862 64.8665 39.3646 64.8041L41.2542 64.1489C41.1878 63.9574 41.0709 63.8193 41.0634 63.8099C41.0245 63.7608 40.9823 63.7135 40.945 63.6731C40.8685 63.5904 40.7686 63.4898 40.6523 63.3762L39.2552 64.8073ZM39.9818 63.5317C39.0655 63.8494 38.4875 63.8363 38.1402 63.7096L37.4544 65.5883C38.4158 65.9392 39.5126 65.8112 40.637 65.4213L39.9818 63.5317ZM38.1779 63.7242C37.9098 63.6138 37.562 63.2989 37.2681 62.451L35.3784 63.1062C35.7659 64.2236 36.4008 65.1555 37.4166 65.5737L38.1779 63.7242ZM37.2681 62.451C36.8596 61.2728 36.7841 60.1243 37.0257 58.9859L35.0694 58.5705C34.7483 60.0827 34.8566 61.6012 35.3784 63.1062L37.2681 62.451ZM37.0273 58.9785C37.254 57.8696 37.8701 56.7787 38.9607 55.7082L37.5597 54.281C36.2497 55.5669 35.3907 56.9984 35.0678 58.5779L37.0273 58.9785ZM38.9571 55.7117C40.0388 54.6606 41.6193 53.7452 43.7612 53.0026L43.106 51.113C40.7883 51.9166 38.9199 52.9591 37.5633 54.2774L38.9571 55.7117ZM43.7612 53.0026C44.144 52.8699 44.7888 52.6941 45.7231 52.4754L45.2672 50.5281C44.3219 50.7494 43.5924 50.9443 43.106 51.113L43.7612 53.0026ZM45.7493 52.4689C47.5117 52.0058 48.7509 51.6536 49.4346 51.4165L48.7795 49.5269C48.1782 49.7353 47.0095 50.0698 45.241 50.5346L45.7493 52.4689ZM49.4346 51.4165C50.5018 51.0465 51.415 50.5953 52.1432 50.0447L50.937 48.4494C50.4242 48.8372 49.7153 49.2024 48.7795 49.5269L49.4346 51.4165ZM50.5494 49.383C50.5657 49.5017 50.6339 49.9218 50.7482 50.6129L52.7214 50.2864C52.6039 49.5761 52.5423 49.1945 52.5308 49.1111L50.5494 49.383ZM50.7482 50.6129C50.8337 51.1292 50.7684 51.5601 50.5831 51.9422L52.3826 52.8151C52.7651 52.0265 52.8679 51.1715 52.7214 50.2864L50.7482 50.6129ZM50.5831 51.9422C50.4488 52.219 50.1986 52.464 49.6991 52.6372L50.3543 54.5269C51.2532 54.2152 51.9737 53.658 52.3826 52.8151L50.5831 51.9422ZM49.6991 52.6372C48.4022 53.0869 46.8106 53.4392 44.9119 53.6843L45.1679 55.6678C47.1594 55.4108 48.8924 55.0337 50.3543 54.5269L49.6991 52.6372ZM44.0473 54.7972L44.9101 61.8645L46.8953 61.6222L46.0326 54.5548L44.0473 54.7972ZM46.4918 62.5515C47.4404 61.86 48.2563 61.4142 48.9446 61.1756L48.2894 59.2859C47.3525 59.6107 46.359 60.1733 45.3137 60.9353L46.4918 62.5515ZM48.9446 61.1756C50.3326 60.6943 51.3624 60.7994 52.1685 61.2915L53.2107 59.5845C51.7612 58.6996 50.0759 58.6665 48.2894 59.2859L48.9446 61.1756ZM52.1869 61.3025C53.0686 61.8153 53.7865 62.7164 54.2805 64.1412L56.1701 63.486C55.5634 61.7362 54.5909 60.3869 53.1923 59.5736L52.1869 61.3025ZM54.2805 64.1412C54.5931 65.0429 54.7431 66.1112 54.7052 67.3639L56.7043 67.4244C56.7479 65.9816 56.5782 64.663 56.1701 63.486L54.2805 64.1412ZM54.705 67.3727C54.6799 68.5389 54.3963 69.6172 53.8541 70.6213L55.6139 71.5715C56.3092 70.2838 56.6727 68.8939 56.7045 67.4156L54.705 67.3727ZM53.8541 70.6213C53.3654 71.5264 52.5943 72.177 51.4658 72.5683L52.121 74.4579C53.6758 73.9188 54.8651 72.9583 55.6139 71.5715L53.8541 70.6213ZM63.4094 76.09L63.0859 77.0362L63.0859 77.0362L63.4094 76.09ZM62.1945 71.3039L61.3694 70.7388L61.3617 70.7503L62.1945 71.3039ZM64.9506 68.5384L65.5534 69.3363L66.0097 68.9916L65.944 68.4236L64.9506 68.5384ZM64.7601 66.8899L65.7535 66.775L65.3197 63.0226L63.84 66.4981L64.7601 66.8899ZM63.5202 68.7169L64.1752 69.4725L64.1752 69.4725L63.5202 68.7169ZM59.4034 69.5727L58.9517 70.4649L58.9593 70.4687L58.9669 70.4724L59.4034 69.5727ZM57.2848 65.3857L56.2926 65.5104L56.2941 65.5216L57.2848 65.3857ZM56.0576 55.6188L55.73 54.674L54.9643 54.9394L55.0654 55.7435L56.0576 55.6188ZM60.1392 54.2036L61.1314 54.0789L60.9775 52.8546L59.8116 53.2588L60.1392 54.2036ZM61.4398 64.5484L62.4359 64.4597L62.4343 64.4416L62.432 64.4236L61.4398 64.5484ZM63.9709 65.1631L64.8903 65.5563L64.8947 65.5461L64.8988 65.5359L63.9709 65.1631ZM64.2882 63.148L65.288 63.1278L65.287 63.0764L65.2807 63.0254L64.2882 63.148ZM63.0587 53.1913L62.7311 52.2465L61.9671 52.5114L62.0662 53.3139L63.0587 53.1913ZM67.1403 51.7762L68.1327 51.6529L67.9804 50.4265L66.8127 50.8313L67.1403 51.7762ZM68.8942 65.901L67.9019 66.0242L68.1174 67.7598L69.5038 66.6937L68.8942 65.901ZM70.605 63.7837L69.685 63.392L69.685 63.392L70.605 63.7837ZM71.0603 60.6094L70.7327 59.6646L70.0414 59.9043L70.0607 60.6358L71.0603 60.6094ZM72.2508 60.1967L73.25 60.1575L73.1972 58.8101L71.9232 59.2518L72.2508 60.1967ZM71.469 64.6272L72.3423 65.1146L72.348 65.1041L71.469 64.6272ZM69.0716 67.2366L68.5178 66.4039L68.0002 66.7481L68.0798 67.3646L69.0716 67.2366ZM69.354 69.4248L68.3622 69.5528L68.3625 69.5549L69.354 69.4248ZM68.7053 73.8728L67.8818 73.3053L67.8745 73.3162L68.7053 73.8728ZM65.2735 70.9349L66.2654 70.8078L66.2651 70.8055L65.2735 70.9349ZM65.1586 70.0539L66.1502 69.9246L65.9174 68.1408L64.5253 69.28L65.1586 70.0539ZM63.6973 73.9898L64.1804 73.1143L64.1804 73.1143L63.6973 73.9898ZM65.5951 75.0676C64.859 75.3228 64.2536 75.3218 63.7329 75.1438L63.0859 77.0362C64.1022 77.3837 65.1723 77.331 66.2503 76.9572L65.5951 75.0676ZM63.7329 75.1438C63.3038 74.9971 62.9646 74.685 62.7396 74.0361L60.85 74.6913C61.2408 75.8186 61.978 76.6574 63.0859 77.0362L63.7329 75.1438ZM62.7396 74.0361C62.4701 73.2589 62.5574 72.5644 63.0273 71.8575L61.3617 70.7503C60.5517 71.9689 60.3725 73.3142 60.85 74.6913L62.7396 74.0361ZM63.0195 71.869C63.5896 71.0366 64.4239 70.1897 65.5534 69.3363L64.3478 67.7405C63.0955 68.6867 62.0923 69.6834 61.3695 70.7388L63.0195 71.869ZM65.944 68.4236L65.7535 66.775L63.7667 67.0047L63.9572 68.6532L65.944 68.4236ZM63.84 66.4981C63.5421 67.1979 63.2066 67.6652 62.8651 67.9613L64.1752 69.4725C64.8102 68.9219 65.3014 68.1713 65.6801 67.2816L63.84 66.4981ZM62.8651 67.9613C62.4688 68.3049 62.042 68.552 61.5815 68.7117L62.2367 70.6013C62.9477 70.3548 63.5949 69.9755 64.1752 69.4725L62.8651 67.9613ZM61.5815 68.7117C60.8892 68.9517 60.3325 68.912 59.8398 68.673L58.9669 70.4724C60.0011 70.9741 61.1149 70.9902 62.2367 70.6013L61.5815 68.7117ZM59.855 68.6805C59.4264 68.4636 58.987 67.9751 58.6417 66.9791L56.752 67.6343C57.1929 68.9058 57.8912 69.9281 58.9517 70.4649L59.855 68.6805ZM58.6417 66.9791C58.5086 66.5954 58.3823 66.0281 58.2755 65.2498L56.2941 65.5216C56.4091 66.3598 56.5575 67.0732 56.752 67.6343L58.6417 66.9791ZM58.277 65.261L57.0498 55.4941L55.0654 55.7435L56.2926 65.5104L58.277 65.261ZM56.3852 56.5636L60.4668 55.1484L59.8116 53.2588L55.73 54.674L56.3852 56.5636ZM59.147 54.3283L60.4476 64.6731L62.432 64.4236L61.1314 54.0789L59.147 54.3283ZM60.4437 64.637C60.4733 64.9689 60.545 65.2951 60.6556 65.614L62.5453 64.9589C62.4855 64.7865 62.4502 64.6206 62.4359 64.4597L60.4437 64.637ZM60.6556 65.614C60.8268 66.1077 61.0917 66.6173 61.5413 66.951C62.0575 67.3343 62.6611 67.3742 63.2108 67.1836L62.5556 65.294C62.5296 65.303 62.551 65.2906 62.6048 65.2971C62.6637 65.3043 62.7101 65.3279 62.7334 65.3452C62.7504 65.3578 62.7319 65.3497 62.6915 65.2848C62.6512 65.2201 62.5998 65.116 62.5453 64.9589L60.6556 65.614ZM63.2108 67.1836C64.0077 66.9073 64.5633 66.3211 64.8903 65.5563L63.0514 64.77C62.9108 65.0987 62.7413 65.2296 62.5556 65.294L63.2108 67.1836ZM64.8988 65.5359C65.1879 64.8161 65.3057 64.0044 65.288 63.1278L63.2884 63.1681C63.3021 63.8471 63.2083 64.3788 63.0429 64.7904L64.8988 65.5359ZM65.2807 63.0254L64.0511 53.0688L62.0662 53.3139L63.2958 63.2705L65.2807 63.0254ZM63.3863 54.1362L67.4679 52.721L66.8127 50.8313L62.7311 52.2465L63.3863 54.1362ZM66.1479 51.8994L67.9019 66.0242L69.8866 65.7778L68.1327 51.6529L66.1479 51.8994ZM69.5038 66.6937C70.4187 65.9902 71.1087 65.1535 71.5251 64.1754L69.685 63.392C69.4247 64.0033 68.9742 64.5781 68.2847 65.1083L69.5038 66.6937ZM71.5251 64.1754C71.9415 63.1975 72.0968 61.9793 72.06 60.5831L70.0607 60.6358C70.0935 61.8826 69.9453 62.7806 69.685 63.392L71.5251 64.1754ZM71.3879 61.5542L72.5784 61.1415L71.9232 59.2518L70.7327 59.6646L71.3879 61.5542ZM71.2515 60.2359C71.3206 61.9972 71.0661 63.2729 70.5901 64.1504L72.348 65.1041C73.0601 63.7915 73.3267 62.1135 73.25 60.1575L71.2515 60.2359ZM70.5958 64.1399C70.0705 65.0812 69.3792 65.8311 68.5178 66.4039L69.6253 68.0693C70.7593 67.3152 71.6664 66.3255 72.3423 65.1146L70.5958 64.1399ZM68.0798 67.3646L68.3622 69.5528L70.3458 69.2968L70.0633 67.1086L68.0798 67.3646ZM68.3625 69.5549C68.6069 71.4187 68.3662 72.6025 67.8819 73.3053L69.5287 74.4402C70.4245 73.1404 70.6162 71.3589 70.3455 69.2948L68.3625 69.5549ZM67.8745 73.3162C67.3133 74.1538 66.5633 74.7319 65.5951 75.0676L66.2503 76.9572C67.6251 76.4805 68.7302 75.6322 69.5361 74.4294L67.8745 73.3162ZM64.8318 74.9724C65.6206 74.6989 65.9939 73.9704 66.1762 73.322L64.2508 72.7807C64.1954 72.9779 64.1406 73.0748 64.1134 73.1121C64.0929 73.1405 64.1107 73.1056 64.1766 73.0827L64.8318 74.9724ZM66.1762 73.322C66.3789 72.6009 66.3855 71.7451 66.2654 70.8078L64.2816 71.062C64.3848 71.8677 64.3514 72.4229 64.2508 72.7807L66.1762 73.322ZM66.2651 70.8055L66.1502 69.9246L64.167 70.1833L64.2819 71.0643L66.2651 70.8055ZM64.5253 69.28C63.6736 69.9769 63.0042 70.6783 62.5944 71.3897C62.1757 72.1167 61.9875 72.9353 62.2713 73.7539L64.161 73.0987C64.1238 72.9914 64.0988 72.785 64.3275 72.3879C64.5652 71.9752 65.0275 71.4533 65.7919 70.8278L64.5253 69.28ZM62.2713 73.7539C62.4405 74.2418 62.7706 74.6206 63.2142 74.8654L64.1804 73.1143C64.1688 73.1079 64.1628 73.1033 64.1607 73.1016C64.1586 73.1 64.1591 73.1001 64.1608 73.1021C64.1625 73.1041 64.1637 73.106 64.1642 73.1068C64.1647 73.1076 64.1633 73.1054 64.161 73.0987L62.2713 73.7539ZM63.2142 74.8654C63.745 75.1583 64.3169 75.1509 64.8318 74.9724L64.1766 73.0827C64.1234 73.1012 64.1083 73.0972 64.1224 73.0978C64.1293 73.0982 64.1399 73.0995 64.1522 73.103C64.1645 73.1065 64.1742 73.1108 64.1804 73.1143L63.2142 74.8654ZM95.7011 52.0659L96.701 52.0604L96.6933 50.6635L95.3735 51.1211L95.7011 52.0659ZM89.4579 59.1521L89.0068 60.0446L89.0214 60.052L89.0363 60.0589L89.4579 59.1521ZM87.1488 53.3166L88.1424 53.2029L88.1423 53.2025L87.1488 53.3166ZM86.6932 49.3468L87.6867 49.2327L85.7015 49.2183L86.6932 49.3468ZM85.1303 61.4147L85.4579 62.3595L86.0426 62.1568L86.122 61.5431L85.1303 61.4147ZM81.7857 62.5743L80.8639 62.962L81.2273 63.8263L82.1132 63.5192L81.7857 62.5743ZM76.9025 50.9633L77.8243 50.5756L76.8717 48.3105L75.972 50.5971L76.9025 50.9633ZM76.595 53.0068L77.595 53.0177L77.595 53.0097L76.595 53.0068ZM76.8714 56.2767L75.8815 56.4183L75.8815 56.4184L76.8714 56.2767ZM77.3535 60.8723L76.3542 60.9076L76.3545 60.9164L76.3549 60.9252L77.3535 60.8723ZM76.9209 63.5625L76.0212 63.126L76.0172 63.1342L76.0134 63.1425L76.9209 63.5625ZM72.3933 64.9735L72.8577 64.0879L72.8568 64.0875L72.3933 64.9735ZM70.6033 61.2759L71.5457 61.6103L71.5496 61.5992L71.5533 61.588L70.6033 61.2759ZM73.6994 62.3298L74.5991 62.7663L74.6078 62.7483L74.6158 62.73L73.6994 62.3298ZM73.004 62.8885L72.7961 61.9103L71.6881 62.1458L72.0592 63.216L73.004 62.8885ZM75.5902 62.5633L76.5116 62.9519L76.5163 62.9407L76.5207 62.9295L75.5902 62.5633ZM75.8006 60.3312L74.8016 60.3754L74.802 60.3853L74.8026 60.3951L75.8006 60.3312ZM75.3143 56.1815L76.3022 56.0263L76.3012 56.02L75.3143 56.1815ZM75.4456 50.5159L74.5204 50.1364L74.5199 50.1376L75.4456 50.5159ZM79.5362 47.4782L80.4637 47.1044L80.1078 46.2216L79.2086 46.5334L79.5362 47.4782ZM83.8486 58.1758L82.9211 58.5497L84.3648 62.131L84.841 58.2991L83.8486 58.1758ZM85.4319 45.4341L85.1043 44.4893L84.5163 44.6931L84.4395 45.3108L85.4319 45.4341ZM90.0237 43.842L91.0161 43.7191L90.8642 42.4922L89.6961 42.8972L90.0237 43.842ZM90.9587 51.3923L91.9532 51.2873L91.9522 51.2783L91.9511 51.2694L90.9587 51.3923ZM91.2139 53.6852L92.2069 53.5671L92.2069 53.5671L91.2139 53.6852ZM94.5106 52.4787L94.183 51.5339L93.5665 51.7476L93.5139 52.398L94.5106 52.4787ZM94.7011 52.0715C94.7219 55.8453 93.6185 57.6038 91.9195 58.1928L92.5747 60.0825C95.5242 59.0598 96.7234 56.1037 96.701 52.0604L94.7011 52.0715ZM91.9195 58.1928C91.0064 58.5094 90.3587 58.4682 89.8796 58.2454L89.0363 60.0589C90.1219 60.5637 91.3336 60.5128 92.5747 60.0825L91.9195 58.1928ZM89.9091 58.2597C89.3816 57.993 89.0194 57.582 88.8055 56.9652L86.9159 57.6204C87.2917 58.7042 87.9943 59.5328 89.0068 60.0446L89.9091 58.2597ZM88.8055 56.9652C88.5902 56.3442 88.3617 55.1192 88.1424 53.2029L86.1553 53.4303C86.3741 55.3416 86.6202 56.7675 86.9159 57.6204L88.8055 56.9652ZM88.1423 53.2025L87.6867 49.2327L85.6998 49.4608L86.1554 53.4306L88.1423 53.2025ZM85.7015 49.2183L84.1386 61.2862L86.122 61.5431L87.685 49.4752L85.7015 49.2183ZM84.8027 60.4698L81.4581 61.6295L82.1132 63.5192L85.4579 62.3595L84.8027 60.4698ZM82.7075 62.1867L77.8243 50.5756L75.9807 51.351L80.8639 62.962L82.7075 62.1867ZM75.972 50.5971C75.7064 51.2722 75.5977 52.0912 75.595 53.0039L77.595 53.0097C77.5973 52.2272 77.6937 51.6839 77.8331 51.3295L75.972 50.5971ZM75.5951 52.9959C75.5852 53.8976 75.685 55.0444 75.8815 56.4183L77.8614 56.1351C77.6713 54.8065 77.5867 53.7734 77.595 53.0177L75.5951 52.9959ZM75.8815 56.4184C76.163 58.3834 76.3177 59.8737 76.3542 60.9076L78.3529 60.8371C78.3127 59.6961 78.146 58.1226 77.8613 56.1349L75.8815 56.4184ZM76.3549 60.9252C76.4064 61.8964 76.2709 62.6112 76.0212 63.126L77.8207 63.9989C78.2622 63.0886 78.4152 62.0101 78.3521 60.8194L76.3549 60.9252ZM76.0134 63.1425C75.8214 63.5573 75.4627 63.8987 74.7994 64.1287L75.4545 66.0184C76.5297 65.6456 77.3669 64.9797 77.8284 63.9825L76.0134 63.1425ZM74.7994 64.1287C73.9854 64.411 73.3685 64.3557 72.8577 64.0879L71.929 65.8592C73.0222 66.4324 74.2277 66.4437 75.4545 66.0184L74.7994 64.1287ZM72.8568 64.0875C72.262 63.7763 71.8589 63.31 71.6253 62.6362L69.7356 63.2914C70.131 64.4316 70.8698 65.3051 71.9298 65.8596L72.8568 64.0875ZM71.6253 62.6362C71.4525 62.1378 71.472 61.8181 71.5457 61.6103L69.6608 60.9415C69.3919 61.6993 69.4629 62.5048 69.7356 63.2914L71.6253 62.6362ZM71.5533 61.588C71.6141 61.4031 71.7166 61.2815 71.9716 61.1931L71.3165 59.3035C70.5133 59.5819 69.922 60.1455 69.6532 60.9639L71.5533 61.588ZM71.9716 61.1931C72.2104 61.1103 72.3495 61.1361 72.4605 61.1899L73.3333 59.3904C72.6809 59.0739 71.9847 59.0718 71.3165 59.3035L71.9716 61.1931ZM72.4605 61.1899C72.6063 61.2606 72.6813 61.3473 72.731 61.4907L74.6207 60.8356C74.3952 60.1853 73.951 59.69 73.3333 59.3904L72.4605 61.1899ZM72.731 61.4907C72.8357 61.7927 72.7926 61.9074 72.7829 61.9297L74.6158 62.73C74.8893 62.1037 74.8305 61.4407 74.6207 60.8356L72.731 61.4907ZM72.7996 61.8934C72.7899 61.9134 72.7831 61.9228 72.7813 61.925C72.7799 61.9269 72.782 61.9239 72.7881 61.9189C72.791 61.9166 72.7941 61.9144 72.7973 61.9125C72.8004 61.9105 72.8031 61.9091 72.8049 61.9083C72.8089 61.9065 72.8069 61.908 72.7961 61.9103L73.2119 63.8666C73.8471 63.7316 74.3245 63.3324 74.5991 62.7663L72.7996 61.8934ZM72.0592 63.216C72.2363 63.727 72.5615 64.2364 73.1357 64.5058C73.7038 64.7723 74.3024 64.7032 74.8105 64.5271L74.1553 62.6374C74.0449 62.6757 73.9813 62.6823 73.9562 62.6828C73.9359 62.6832 73.9524 62.6798 73.9852 62.6951C74.0186 62.7108 74.0309 62.7283 74.0244 62.7199C74.0145 62.7073 73.984 62.6623 73.9488 62.5609L72.0592 63.216ZM74.8105 64.5271C75.5951 64.2551 76.1874 63.7207 76.5116 62.9519L74.6688 62.1747C74.5748 62.3976 74.4289 62.5426 74.1553 62.6374L74.8105 64.5271ZM76.5207 62.9295C76.8035 62.2107 76.8641 61.2919 76.7985 60.2674L74.8026 60.3951C74.8616 61.3172 74.7819 61.8864 74.6596 62.1971L76.5207 62.9295ZM76.7996 60.287C76.7537 59.2511 76.5848 57.8245 76.3022 56.0263L74.3265 56.3368C74.6054 58.1117 74.7606 59.4516 74.8016 60.3754L76.7996 60.287ZM76.3012 56.02C75.8914 53.5162 75.9767 51.8598 76.3713 50.8941L74.5199 50.1376C73.9068 51.6382 73.9045 53.7588 74.3275 56.343L76.3012 56.02ZM76.3708 50.8954C76.7711 49.9194 77.4808 49.2493 78.5883 48.8653L77.9331 46.9757C76.3195 47.5351 75.1525 48.5953 74.5204 50.1364L76.3708 50.8954ZM78.5883 48.8653L79.8638 48.4231L79.2086 46.5334L77.9331 46.9757L78.5883 48.8653ZM78.6087 47.8521L82.9211 58.5497L84.7761 57.802L80.4637 47.1044L78.6087 47.8521ZM84.841 58.2991L86.4242 45.5574L84.4395 45.3108L82.8562 58.0525L84.841 58.2991ZM85.7595 46.3789L90.3513 44.7868L89.6961 42.8972L85.1043 44.4893L85.7595 46.3789ZM89.0313 43.9649L89.9663 51.5152L91.9511 51.2694L91.0161 43.7191L89.0313 43.9649ZM89.9642 51.4974C90.0573 52.3784 90.1429 53.1473 90.2209 53.8033L92.2069 53.5671C92.1302 52.9221 92.0456 52.1623 91.9532 51.2873L89.9642 51.4974ZM90.2209 53.8033C90.297 54.4431 90.3841 54.9854 90.5031 55.3288L92.3928 54.6736C92.3546 54.5635 92.2856 54.2284 92.2069 53.5671L90.2209 53.8033ZM90.5031 55.3288C90.6873 55.86 91.012 56.3903 91.5827 56.6846C92.1646 56.9846 92.7864 56.9291 93.3221 56.7434L92.6669 54.8537C92.5579 54.8915 92.4972 54.8962 92.4756 54.8961C92.4596 54.8961 92.4741 54.894 92.4992 54.9069C92.5544 54.9354 92.4837 54.936 92.3928 54.6736L90.5031 55.3288ZM93.3221 56.7434C94.0904 56.477 94.6878 55.9641 95.0058 55.2036L93.1607 54.4319C93.0853 54.6123 92.9567 54.7532 92.6669 54.8537L93.3221 56.7434ZM95.0058 55.2036C95.2678 54.5772 95.4181 53.6616 95.5073 52.5594L93.5139 52.398C93.4268 53.4738 93.2922 54.1175 93.1607 54.4319L95.0058 55.2036ZM94.8382 53.4235L96.0287 53.0108L95.3735 51.1211L94.183 51.5339L94.8382 53.4235ZM96.6583 56.3699L96.2102 57.2638L96.2102 57.2638L96.6583 56.3699ZM93.6809 48.6069L92.681 48.5899L92.6809 48.5968L93.6809 48.6069ZM94.819 43.8305L95.7109 44.2826L95.7111 44.2824L94.819 43.8305ZM100.094 40.6363L100.367 39.6744L100.367 39.6744L100.094 40.6363ZM101.093 41.6869L100.148 42.0145L102.085 41.5581L101.093 41.6869ZM100.884 40.0765L100.556 39.1317L99.7874 39.3983L99.8922 40.2053L100.884 40.0765ZM104.966 38.6613L105.958 38.5366L105.804 37.3123L104.638 37.7165L104.966 38.6613ZM106.266 49.0061L107.263 48.933L107.262 48.9071L107.258 48.8813L106.266 49.0061ZM109.157 49.5596L108.216 49.2208L108.212 49.232L108.208 49.2432L109.157 49.5596ZM109.424 47.3079L109.096 46.3631L108.384 46.6102L108.426 47.3633L109.424 47.3079ZM110.615 46.8951L111.615 46.8914L111.609 45.4918L110.287 45.9503L110.615 46.8951ZM109.452 51.9659L110.263 52.5501L110.265 52.5472L109.452 51.9659ZM104.582 54.1306L104.164 55.039L104.182 55.0476L104.201 55.0553L104.582 54.1306ZM103.053 52.4696L103.956 52.0397L102.825 49.6637L102.093 52.1915L103.053 52.4696ZM101.87 55.0075L102.685 55.586L102.688 55.5817L101.87 55.0075ZM101.786 52.02L102.676 52.4755L102.677 52.4747L101.786 52.02ZM102.111 49.8434L103.104 49.726L103.103 49.7193L102.111 49.8434ZM101.251 42.9658L102.243 42.8417L102.23 42.7375L102.195 42.6382L101.251 42.9658ZM100.721 42.3555L100.172 43.1912L100.189 43.2019L100.205 43.212L100.721 42.3555ZM98.1361 44.3314L99.0989 44.6021L99.1015 44.5924L98.1361 44.3314ZM97.8196 47.9974L98.8176 47.9339L98.8173 47.93L97.8196 47.9974ZM99.4654 53.1104L99.0289 54.0101L99.0445 54.0177L99.0602 54.0247L99.4654 53.1104ZM99.4067 55.5969C98.5711 55.8866 97.8265 55.8368 97.1064 55.4759L96.2102 57.2638C97.4372 57.8789 98.7433 57.9437 100.062 57.4865L99.4067 55.5969ZM97.1064 55.4759C96.4629 55.1534 95.8292 54.4061 95.327 52.9577L93.4374 53.6129C94.0228 55.3013 94.9064 56.6104 96.2102 57.2638L97.1064 55.4759ZM95.327 52.9577C94.8854 51.684 94.6645 50.241 94.6808 48.6169L92.6809 48.5968C92.6627 50.414 92.9093 52.0899 93.4374 53.6129L95.327 52.9577ZM94.6807 48.6238C94.708 47.0163 95.0558 45.5748 95.7109 44.2826L93.9271 43.3783C93.124 44.9625 92.713 46.7053 92.681 48.5899L94.6807 48.6238ZM95.7111 44.2824C96.337 43.0467 97.2725 42.2283 98.5546 41.7838L97.8995 39.8941C96.1204 40.511 94.7838 41.687 93.9269 43.3786L95.7111 44.2824ZM98.5546 41.7838C99.2541 41.5412 99.6415 41.5474 99.8202 41.5982L100.367 39.6744C99.6065 39.4582 98.7495 39.5994 97.8995 39.8941L98.5546 41.7838ZM99.8202 41.5982C99.9988 41.6489 100.043 41.7115 100.079 41.8161L101.969 41.1609C101.704 40.3963 101.128 39.8907 100.367 39.6744L99.8202 41.5982ZM100.079 41.8161L100.148 42.0145L102.038 41.3593L101.969 41.1609L100.079 41.8161ZM102.085 41.5581L101.876 39.9478L99.8922 40.2053L100.101 41.8156L102.085 41.5581ZM101.211 41.0213L105.293 39.6062L104.638 37.7165L100.556 39.1317L101.211 41.0213ZM103.973 38.7861L105.274 49.1308L107.258 48.8813L105.958 38.5366L103.973 38.7861ZM105.269 49.0792C105.298 49.4834 105.385 49.8843 105.522 50.28L107.412 49.6248C107.326 49.3781 107.279 49.1481 107.263 48.933L105.269 49.0792ZM105.522 50.28C105.71 50.821 106.04 51.3577 106.617 51.6549C107.205 51.9577 107.835 51.902 108.38 51.7131L107.724 49.8235C107.611 49.8629 107.545 49.8685 107.52 49.8684C107.5 49.8684 107.51 49.8654 107.532 49.8767C107.582 49.902 107.506 49.8964 107.412 49.6248L105.522 50.28ZM108.38 51.7131C109.254 51.4098 109.819 50.7359 110.106 49.876L108.208 49.2432C108.08 49.628 107.908 49.7599 107.724 49.8235L108.38 51.7131ZM110.098 49.8984C110.381 49.111 110.476 48.2195 110.423 47.2525L108.426 47.3633C108.469 48.1408 108.386 48.7504 108.216 49.2208L110.098 49.8984ZM109.752 48.2527L110.942 47.8399L110.287 45.9503L109.096 46.3631L109.752 48.2527ZM109.615 46.8988C109.623 49.1031 109.241 50.5402 108.638 51.3847L110.265 52.5472C111.23 51.197 111.623 49.2536 111.615 46.8914L109.615 46.8988ZM108.64 51.3818C107.964 52.3206 107.216 52.8892 106.408 53.1694L107.063 55.0591C108.333 54.6186 109.396 53.7549 110.263 52.5501L108.64 51.3818ZM106.408 53.1694C105.794 53.3822 105.334 53.3586 104.963 53.2059L104.201 55.0553C105.114 55.4311 106.089 55.3966 107.063 55.0591L106.408 53.1694ZM105 53.2221C104.641 53.0569 104.276 52.7116 103.956 52.0397L102.151 52.8996C102.609 53.8628 103.264 54.6249 104.164 55.039L105 53.2221ZM102.093 52.1915C101.84 53.0641 101.49 53.8074 101.051 54.4334L102.688 55.5817C103.269 54.7534 103.708 53.8047 104.014 52.7478L102.093 52.1915ZM101.054 54.4291C100.693 54.9378 100.164 55.3342 99.4067 55.5969L100.062 57.4865C101.156 57.1071 102.051 56.4807 102.685 55.586L101.054 54.4291ZM100.951 54.0983C101.739 53.8252 102.296 53.2191 102.676 52.4755L100.896 51.5645C100.671 52.0045 100.453 52.1541 100.296 52.2086L100.951 54.0983ZM102.677 52.4747C103.1 51.6467 103.221 50.7143 103.104 49.726L101.118 49.9608C101.198 50.6399 101.103 51.1586 100.896 51.5652L102.677 52.4747ZM103.103 49.7193L102.243 42.8417L100.258 43.09L101.119 49.9676L103.103 49.7193ZM102.195 42.6382C102.019 42.1292 101.663 41.7556 101.238 41.499L100.205 43.212C100.263 43.2469 100.289 43.2732 100.299 43.284C100.304 43.2895 100.305 43.2924 100.306 43.2928C100.306 43.293 100.306 43.293 100.306 43.2934L102.195 42.6382ZM101.271 41.5198C100.667 41.1228 99.9876 41.1388 99.3875 41.3468L100.043 43.2365C100.146 43.2007 100.194 43.202 100.201 43.2024C100.204 43.2026 100.199 43.2025 100.191 43.1997C100.182 43.1968 100.175 43.1932 100.172 43.1912L101.271 41.5198ZM99.3875 41.3468C98.1997 41.7587 97.5147 42.7984 97.1708 44.0705L99.1015 44.5924C99.3511 43.669 99.7187 43.3488 100.043 43.2365L99.3875 41.3468ZM97.1735 44.0608C96.8333 45.2708 96.7236 46.6102 96.8219 48.0649L98.8173 47.93C98.7311 46.6545 98.8324 45.5499 99.0988 44.6021L97.1735 44.0608ZM96.8216 48.061C96.9112 49.4681 97.1294 50.7078 97.4948 51.7615L99.3844 51.1064C99.0946 50.2705 98.8994 49.2192 98.8176 47.9339L96.8216 48.061ZM97.4948 51.7615C97.6712 52.2703 97.8662 52.7198 98.0887 53.0836C98.3009 53.4303 98.5997 53.8019 99.0289 54.0101L99.9018 52.2107C99.9748 52.2461 99.9245 52.2519 99.7947 52.0398C99.6754 51.8447 99.5356 51.5424 99.3844 51.1064L97.4948 51.7615ZM99.0602 54.0247C99.6729 54.2962 100.321 54.3167 100.951 54.0983L100.296 52.2086C100.132 52.2654 100.008 52.2572 99.8706 52.1962L99.0602 54.0247ZM110.731 51.7763L111.198 50.8921L111.197 50.8916L110.731 51.7763ZM109.035 47.9827L109.983 48.3012L109.983 48.3012L109.035 47.9827ZM111.167 46.9894L112.167 47.0112L112.181 46.3697L111.603 46.0896L111.167 46.9894ZM112.181 50.0986L112.722 49.2573L112.722 49.2573L112.181 50.0986ZM114.059 48.4632L113.074 48.2907L113.074 48.2907L114.059 48.4632ZM114.121 44.8856L115.116 44.7865L115.116 44.7865L114.121 44.8856ZM109.476 39.7327L110.388 40.1433L110.388 40.1433L109.476 39.7327ZM109.13 41.6629L109.457 42.6077L110.106 42.3827L110.129 41.6963L109.13 41.6629ZM107.656 42.1739L106.656 42.2149L106.712 43.5596L107.983 43.1187L107.656 42.1739ZM108.265 38.438L107.371 37.9899L107.366 38.0015L108.265 38.438ZM114.352 36.4864L114.832 35.609L114.832 35.609L114.352 36.4864ZM117.004 40.8378L116.028 41.0549L116.271 42.1502L117.331 41.7826L117.004 40.8378ZM118.704 40.2482L119.032 41.193L119.799 40.927L119.696 40.1217L118.704 40.2482ZM117.929 34.1665L117.602 33.2216L116.835 33.4876L116.937 34.2929L117.929 34.1665ZM121.728 32.8496L122.72 32.7231L122.564 31.5012L121.4 31.9047L121.728 32.8496ZM122.503 38.9312L121.511 39.0577L121.666 40.2796L122.83 39.8761L122.503 38.9312ZM124.09 38.3809L124.418 39.3257L125.123 39.0812L125.089 38.3356L124.09 38.3809ZM130.351 30.4311L129.844 31.2932L129.862 31.3033L129.879 31.3127L130.351 30.4311ZM131.776 33.7157L130.831 33.3873L130.826 33.403L130.821 33.4189L131.776 33.7157ZM129.832 34.6118L128.833 34.6514L128.861 35.3726L129.555 35.5727L129.832 34.6118ZM127.487 33.7102L126.504 33.5305L126.502 33.5377L127.487 33.7102ZM127.426 37.2877L128.421 37.192L128.421 37.1886L127.426 37.2877ZM129.544 43.0307L128.995 43.8665L128.995 43.8665L129.544 43.0307ZM133.351 41.6473L134.141 42.2603L134.146 42.2539L134.151 42.2475L133.351 41.6473ZM134.661 38.5576L134.334 37.6128L133.795 37.7995L133.681 38.3578L134.661 38.5576ZM135.625 38.2235L136.621 38.3152L136.763 36.7705L135.297 37.2787L135.625 38.2235ZM134.068 42.891L134.925 43.4072L134.925 43.4072L134.068 42.891ZM127.185 45.6586L126.705 46.536L126.705 46.536L127.185 45.6586ZM124.311 40.2093L125.305 40.1005L125.169 38.8536L123.984 39.2645L124.311 40.2093ZM122.695 40.7695L122.368 39.8247L121.6 40.0911L121.704 40.8975L122.695 40.7695ZM123.637 48.0636L123.964 49.0084L124.733 48.742L124.629 47.9356L123.637 48.0636ZM119.839 49.3805L118.846 49.5046L119 50.7298L120.166 50.3253L119.839 49.3805ZM118.926 42.0766L119.918 41.9525L119.765 40.7273L118.598 41.1318L118.926 42.0766ZM117.338 42.6269L117.011 41.6821L116.241 41.9491L116.347 42.7573L117.338 42.6269ZM116.894 48.3058L115.945 47.9926L115.945 47.9926L116.894 48.3058ZM113.249 50.7973C112.206 51.1589 111.577 51.0924 111.198 50.8921L110.264 52.6605C111.336 53.2271 112.604 53.1378 113.904 52.687L113.249 50.7973ZM111.197 50.8916C110.685 50.6217 110.324 50.206 110.107 49.5795L108.217 50.2347C108.59 51.3089 109.275 52.1394 110.265 52.661L111.197 50.8916ZM110.107 49.5795C109.887 48.9438 109.901 48.544 109.983 48.3012L108.087 47.6642C107.814 48.4756 107.914 49.3587 108.217 50.2347L110.107 49.5795ZM109.983 48.3012C110.074 48.03 110.192 47.9412 110.337 47.8912L109.681 46.0015C108.881 46.2791 108.35 46.8812 108.087 47.6642L109.983 48.3012ZM110.337 47.8912C110.532 47.8233 110.64 47.8454 110.73 47.8891L111.603 46.0896C110.981 45.7877 110.317 45.7811 109.681 46.0015L110.337 47.8912ZM110.167 46.9675C110.149 47.8092 110.253 48.597 110.502 49.3155L112.392 48.6603C112.235 48.2071 112.152 47.6626 112.167 47.0112L110.167 46.9675ZM110.502 49.3155C110.723 49.9521 111.067 50.5709 111.641 50.9399L112.722 49.2573C112.697 49.2413 112.551 49.1196 112.392 48.6603L110.502 49.3155ZM111.641 50.9399C112.122 51.249 112.724 51.4133 113.355 51.1945L112.7 49.3049C112.714 49.3002 112.731 49.2962 112.751 49.2947C112.77 49.2932 112.785 49.2948 112.793 49.2963C112.81 49.2992 112.787 49.299 112.722 49.2573L111.641 50.9399ZM113.355 51.1945C114.432 50.8213 114.86 49.6899 115.044 48.6356L113.074 48.2907C112.997 48.7341 112.894 49.0111 112.802 49.1703C112.717 49.3184 112.671 49.3148 112.7 49.3049L113.355 51.1945ZM115.044 48.6356C115.242 47.5074 115.259 46.2195 115.116 44.7865L113.126 44.9848C113.256 46.2936 113.232 47.3906 113.074 48.2907L115.044 48.6356ZM115.116 44.7865C114.973 43.3504 114.697 42.0293 114.281 40.8294L112.391 41.4846C112.748 42.5144 112.996 43.6791 113.126 44.9848L115.116 44.7865ZM114.281 40.8294C113.916 39.7768 113.441 38.8841 112.782 38.3168C112.05 37.6869 111.158 37.5196 110.247 37.8355L110.903 39.7251C111.144 39.6413 111.289 39.6703 111.477 39.8326C111.739 40.0575 112.068 40.553 112.391 41.4846L114.281 40.8294ZM110.247 37.8355C109.496 38.0961 108.896 38.5858 108.565 39.3222L110.388 40.1433C110.463 39.9766 110.596 39.8314 110.903 39.7251L110.247 37.8355ZM108.565 39.3222C108.283 39.947 108.16 40.7412 108.13 41.6294L110.129 41.6963C110.155 40.914 110.263 40.4215 110.388 40.1433L108.565 39.3222ZM108.802 40.718L107.328 41.2291L107.983 43.1187L109.457 42.6077L108.802 40.718ZM108.655 42.1329C108.596 40.7093 108.792 39.6438 109.165 38.8744L107.366 38.0015C106.801 39.1662 106.59 40.5913 106.656 42.2149L108.655 42.1329ZM109.159 38.8861C109.505 38.1968 110.144 37.6383 111.224 37.264L110.569 35.3743C109.117 35.8779 108.002 36.732 107.371 37.9899L109.159 38.8861ZM111.224 37.264C112.293 36.8935 113.144 36.9656 113.872 37.3638L114.832 35.609C113.523 34.8931 112.07 34.8537 110.569 35.3743L111.224 37.264ZM113.872 37.3638C114.621 37.7732 115.234 38.5111 115.653 39.7187L117.542 39.0635C117.004 37.5122 116.12 36.3136 114.832 35.609L113.872 37.3638ZM115.653 39.7187C115.796 40.1329 115.922 40.5781 116.028 41.0549L117.98 40.6207C117.859 40.0756 117.713 39.5563 117.542 39.0635L115.653 39.7187ZM117.331 41.7826L119.032 41.193L118.377 39.3033L116.676 39.893L117.331 41.7826ZM119.696 40.1217L118.921 34.0401L116.937 34.2929L117.712 40.3746L119.696 40.1217ZM118.257 35.1113L122.055 33.7944L121.4 31.9047L117.602 33.2216L118.257 35.1113ZM120.736 32.976L121.511 39.0577L123.495 38.8048L122.72 32.7231L120.736 32.976ZM122.83 39.8761L124.418 39.3257L123.762 37.4361L122.175 37.9864L122.83 39.8761ZM125.089 38.3356C125.008 36.5508 125.241 35.0244 125.756 33.7327L123.898 32.9926C123.258 34.599 123 36.418 123.091 38.4262L125.089 38.3356ZM125.756 33.7327C126.229 32.5454 127.021 31.787 128.174 31.387L127.519 29.4974C125.8 30.0933 124.579 31.2818 123.898 32.9926L125.756 33.7327ZM128.174 31.387C129.115 31.0609 129.601 31.1503 129.844 31.2932L130.858 29.569C129.878 28.9929 128.695 29.0896 127.519 29.4974L128.174 31.387ZM129.879 31.3127C130.258 31.5155 130.543 31.8395 130.725 32.3652L132.615 31.7101C132.286 30.7619 131.692 30.0148 130.823 29.5495L129.879 31.3127ZM130.725 32.3652C130.913 32.906 130.89 33.219 130.831 33.3873L132.72 34.044C132.98 33.2978 132.886 32.492 132.615 31.7101L130.725 32.3652ZM130.821 33.4189C130.767 33.592 130.705 33.6317 130.615 33.6632L131.27 35.5528C132.01 35.2961 132.504 34.7408 132.731 34.0124L130.821 33.4189ZM130.615 33.6632C130.499 33.7033 130.343 33.7184 130.109 33.651L129.555 35.5727C130.121 35.7361 130.705 35.7486 131.27 35.5528L130.615 33.6632ZM130.831 34.5723C130.801 33.815 130.692 33.1224 130.481 32.5136L128.591 33.1688C128.721 33.5427 128.808 34.0305 128.833 34.6514L130.831 34.5723ZM130.481 32.5136C130.327 32.0714 130.1 31.6343 129.743 31.3098L128.398 32.7899C128.412 32.8025 128.495 32.893 128.591 33.1688L130.481 32.5136ZM129.743 31.3098C129.333 30.9367 128.762 30.7494 128.153 30.9603L128.808 32.85C128.747 32.8714 128.651 32.8843 128.546 32.8585C128.448 32.8346 128.4 32.7914 128.398 32.7899L129.743 31.3098ZM128.153 30.9603C127.608 31.1493 127.242 31.561 127.002 31.9971C126.764 32.4288 126.609 32.9554 126.504 33.5305L128.471 33.8899C128.556 33.4254 128.661 33.1314 128.754 32.9614C128.845 32.7958 128.881 32.8248 128.808 32.85L128.153 30.9603ZM126.502 33.5377C126.305 34.6659 126.288 35.9539 126.431 37.3869L128.421 37.1886C128.291 35.8798 128.315 34.7828 128.472 33.8827L126.502 33.5377ZM126.431 37.3835C126.567 38.8029 126.84 40.1155 127.256 41.3156L129.146 40.6605C128.789 39.6308 128.545 38.4766 128.421 37.192L126.431 37.3835ZM127.256 41.3156C127.634 42.4069 128.18 43.3306 128.995 43.8665L130.093 42.195C129.812 42.0103 129.462 41.5723 129.146 40.6605L127.256 41.3156ZM128.995 43.8665C129.814 44.4044 130.735 44.5019 131.658 44.1818L131.003 42.2922C130.641 42.4176 130.371 42.3776 130.093 42.195L128.995 43.8665ZM131.658 44.1818C132.613 43.8507 133.434 43.172 134.141 42.2603L132.561 41.0343C132.01 41.7443 131.484 42.1253 131.003 42.2922L131.658 44.1818ZM134.151 42.2475C134.879 41.277 135.367 40.1026 135.641 38.7575L133.681 38.3578C133.454 39.4727 133.068 40.3582 132.551 41.0471L134.151 42.2475ZM134.989 39.5024L135.952 39.1683L135.297 37.2787L134.334 37.6128L134.989 39.5024ZM134.629 38.1317C134.492 39.615 134.024 41.0266 133.212 42.3749L134.925 43.4072C135.886 41.812 136.455 40.1119 136.621 38.3152L134.629 38.1317ZM133.212 42.3749C132.425 43.6803 131.455 44.4849 130.313 44.8811L130.968 46.7707C132.622 46.1972 133.937 45.0453 134.925 43.4072L133.212 42.3749ZM130.313 44.8811C129.244 45.2515 128.393 45.1794 127.665 44.7812L126.705 46.536C128.014 47.2519 129.466 47.2913 130.968 46.7707L130.313 44.8811ZM127.665 44.7812C126.916 44.3718 126.303 43.6339 125.884 42.4263L123.995 43.0815C124.532 44.6328 125.416 45.8314 126.705 46.536L127.665 44.7812ZM125.884 42.4263C125.558 41.486 125.372 40.7147 125.305 40.1005L123.317 40.3182C123.406 41.1315 123.639 42.0566 123.995 43.0815L125.884 42.4263ZM123.984 39.2645L122.368 39.8247L123.023 41.7143L124.639 41.1541L123.984 39.2645ZM121.704 40.8975L122.645 48.1916L124.629 47.9356L123.687 40.6415L121.704 40.8975ZM123.309 47.1188L119.511 48.4357L120.166 50.3253L123.964 49.0084L123.309 47.1188ZM120.831 49.2565L119.918 41.9525L117.933 42.2006L118.846 49.5046L120.831 49.2565ZM118.598 41.1318L117.011 41.6821L117.666 43.5718L119.253 43.0214L118.598 41.1318ZM116.347 42.7573C116.602 44.6955 116.458 46.4344 115.945 47.9926L117.844 48.619C118.465 46.7354 118.618 44.6885 118.33 42.4966L116.347 42.7573ZM115.945 47.9926C115.47 49.4318 114.585 50.3343 113.249 50.7973L113.904 52.687C115.857 52.01 117.183 50.6216 117.844 48.619L115.945 47.9926ZM143.748 40.3287L143.297 41.2211L143.311 41.2285L143.326 41.2354L143.748 40.3287ZM141.427 34.275L142.418 34.1459L142.26 32.9278L141.099 33.3302L141.427 34.275ZM138.28 35.3659L137.953 34.4211L137.188 34.6864L137.288 35.4899L138.28 35.3659ZM139.193 42.6698L139.521 43.6146L140.286 43.3493L140.186 42.5458L139.193 42.6698ZM135.112 44.085L134.12 44.2095L134.273 45.4341L135.439 45.0298L135.112 44.085ZM133.203 28.871L132.875 27.9261L132.109 28.1916L132.21 28.9955L133.203 28.871ZM137.284 27.4558L138.277 27.3341L138.126 26.1054L136.957 26.5109L137.284 27.4558ZM138.031 33.5473L137.038 33.669L137.189 34.8976L138.358 34.4921L138.031 33.5473ZM141.205 32.4466L141.533 33.3914L142.289 33.1293L142.199 32.3344L141.205 32.4466ZM140.515 26.3354L140.188 25.3906L139.432 25.6527L139.522 26.4476L140.515 26.3354ZM144.314 25.0185L145.306 24.8956L145.154 23.6687L143.986 24.0737L144.314 25.0185ZM145.249 32.5688L146.243 32.4638L146.242 32.4548L146.241 32.4459L145.249 32.5688ZM145.504 34.8617L146.497 34.7436L146.497 34.7436L145.504 34.8617ZM148.8 33.6552L148.473 32.7104L147.856 32.9242L147.804 33.5745L148.8 33.6552ZM149.991 33.2425L150.991 33.2369L150.983 31.84L149.663 32.2976L149.991 33.2425ZM146.209 39.3693C145.296 39.6859 144.649 39.6447 144.169 39.4219L143.326 41.2354C144.412 41.7402 145.623 41.6893 146.865 41.259L146.209 39.3693ZM144.199 39.4362C143.671 39.1695 143.309 38.7586 143.095 38.1417L141.206 38.7969C141.582 39.8807 142.284 40.7093 143.297 41.2211L144.199 39.4362ZM143.095 38.1417C142.946 37.7122 142.716 36.431 142.418 34.1459L140.435 34.4041C140.723 36.6154 140.975 38.1304 141.206 38.7969L143.095 38.1417ZM141.099 33.3302L137.953 34.4211L138.608 36.3107L141.754 35.2198L141.099 33.3302ZM137.288 35.4899L138.201 42.7939L140.186 42.5458L139.273 35.2418L137.288 35.4899ZM138.866 41.725L134.784 43.1402L135.439 45.0298L139.521 43.6146L138.866 41.725ZM136.104 43.9605L134.195 28.7464L132.21 28.9955L134.12 44.2095L136.104 43.9605ZM133.53 29.8158L137.612 28.4006L136.957 26.5109L132.875 27.9261L133.53 29.8158ZM136.292 27.5774L137.038 33.669L139.023 33.4256L138.277 27.3341L136.292 27.5774ZM138.358 34.4921L141.533 33.3914L140.878 31.5018L137.703 32.6025L138.358 34.4921ZM142.199 32.3344L141.509 26.2232L139.522 26.4476L140.212 32.5588L142.199 32.3344ZM140.843 27.2802L144.641 25.9633L143.986 24.0737L140.188 25.3906L140.843 27.2802ZM143.321 25.1414L144.256 32.6917L146.241 32.4459L145.306 24.8956L143.321 25.1414ZM144.254 32.6739C144.347 33.5549 144.433 34.3238 144.511 34.9799L146.497 34.7436C146.42 34.0986 146.336 33.3389 146.243 32.4638L144.254 32.6739ZM144.511 34.9799C144.587 35.6196 144.674 36.1619 144.793 36.5053L146.683 35.8501C146.644 35.74 146.575 35.405 146.497 34.7436L144.511 34.9799ZM144.793 36.5053C144.977 37.0366 145.302 37.5669 145.873 37.8611C146.454 38.1611 147.076 38.1056 147.612 37.9199L146.957 36.0302C146.848 36.068 146.787 36.0727 146.765 36.0727C146.749 36.0726 146.764 36.0705 146.789 36.0835C146.844 36.1119 146.774 36.1125 146.683 35.8501L144.793 36.5053ZM147.612 37.9199C148.38 37.6535 148.978 37.1406 149.296 36.3801L147.451 35.6084C147.375 35.7888 147.247 35.9297 146.957 36.0302L147.612 37.9199ZM149.296 36.3801C149.558 35.7537 149.708 34.8381 149.797 33.7359L147.804 33.5745C147.717 34.6503 147.582 35.294 147.451 35.6084L149.296 36.3801ZM149.128 34.6L150.319 34.1873L149.663 32.2976L148.473 32.7104L149.128 34.6ZM148.991 33.248C149.012 37.0218 147.908 38.7803 146.209 39.3693L146.865 41.259C149.814 40.2363 151.013 37.2803 150.991 33.2369L148.991 33.248ZM151.158 37.6322L150.76 38.5496L150.773 38.5548L151.158 37.6322ZM148.824 33.647L149.821 33.567L149.819 33.5416L149.816 33.5164L148.824 33.647ZM147.54 23.8998L147.213 22.9549L146.442 23.222L146.549 24.0304L147.54 23.8998ZM151.452 22.5435L152.444 22.4173L152.288 21.1951L151.124 21.5987L151.452 22.5435ZM152.814 33.2481L153.813 33.2731L153.815 33.1972L153.806 33.1219L152.814 33.2481ZM155.94 33.6565L156.81 34.1494L156.815 34.1397L156.821 34.13L155.94 33.6565ZM156.474 31.5343L157.473 31.5765L157.473 31.5765L156.474 31.5343ZM155.285 28.1047L155.656 27.1761L154.936 26.8881L154.478 27.5143L155.285 28.1047ZM153.565 28.6376L153.205 29.5705L153.221 29.577L153.239 29.5829L153.565 28.6376ZM155.238 25.7713L155.25 26.7712L155.642 26.7665L155.926 26.4967L155.238 25.7713ZM158.759 21.915L157.993 21.2718L157.989 21.2772L158.759 21.915ZM161.117 19.1923L160.79 18.2475L160.554 18.3291L160.385 18.5116L161.117 19.1923ZM162.875 18.583L163.867 18.4601L163.715 17.2332L162.547 17.6382L162.875 18.583ZM163.81 26.1333L164.804 26.0282L164.803 26.0193L164.802 26.0104L163.81 26.1333ZM164.065 28.4262L165.058 28.3081L165.058 28.3081L164.065 28.4262ZM166.934 29.5587L167.857 29.9446L167.857 29.9446L166.934 29.5587ZM167.362 27.2197L167.034 26.2749L166.417 26.4886L166.365 27.139L167.362 27.2197ZM168.552 26.8069L169.552 26.8014L169.544 25.4045L168.224 25.8621L168.552 26.8069ZM162.327 33.855L161.862 34.7401L161.869 34.7438L161.876 34.7474L162.327 33.855ZM159.498 23.4052L160.492 23.2917L160.216 20.884L158.714 22.7851L159.498 23.4052ZM156.962 26.3483L156.226 25.6717L155.492 26.4707L156.348 27.1373L156.962 26.3483ZM158.899 32.0271L159.893 32.1412L159.894 32.1339L158.899 32.0271ZM157.62 35.2966L156.8 34.7242L156.795 34.732L157.62 35.2966ZM154.17 36.6094C153.038 37.0016 152.192 36.9803 151.544 36.7097L150.773 38.5548C152.007 39.0711 153.386 38.9978 154.825 38.499L154.17 36.6094ZM151.557 36.7149C150.941 36.4477 150.452 35.929 150.131 35.0038L148.241 35.659C148.707 37.0015 149.532 38.0166 150.76 38.5496L151.557 36.7149ZM150.131 35.0038C149.96 34.511 149.858 34.0326 149.821 33.567L147.827 33.727C147.879 34.3736 148.019 35.0181 148.241 35.659L150.131 35.0038ZM149.816 33.5164L148.532 23.7692L146.549 24.0304L147.833 33.7776L149.816 33.5164ZM147.868 24.8446L151.779 23.4884L151.124 21.5987L147.213 22.9549L147.868 24.8446ZM150.46 22.6697L151.822 33.3743L153.806 33.1219L152.444 22.4173L150.46 22.6697ZM151.814 33.2231C151.805 33.5924 151.927 34.0191 152.059 34.3988L153.949 33.7436C153.89 33.5756 153.853 33.4484 153.832 33.3569C153.809 33.2562 153.814 33.2379 153.813 33.2731L151.814 33.2231ZM152.059 34.3988C152.252 34.9556 152.612 35.4857 153.231 35.7513C153.828 36.0074 154.46 35.9267 155.01 35.7359L154.355 33.8463C154.054 33.9504 153.981 33.897 154.019 33.9132C154.038 33.9215 154.044 33.9314 154.035 33.9197C154.021 33.9034 153.987 33.8534 153.949 33.7436L152.059 34.3988ZM155.01 35.7359C155.8 35.4619 156.391 34.8891 156.81 34.1494L155.07 33.1636C154.832 33.5829 154.585 33.7665 154.355 33.8463L155.01 35.7359ZM156.821 34.13C157.227 33.3743 157.434 32.5136 157.473 31.5765L155.475 31.4922C155.446 32.1878 155.296 32.7418 155.059 33.183L156.821 34.13ZM157.473 31.5765C157.514 30.6225 157.36 29.6638 157.029 28.7067L155.139 29.3619C155.397 30.1056 155.504 30.8135 155.475 31.4922L157.473 31.5765ZM157.029 28.7067C156.796 28.037 156.361 27.458 155.656 27.1761L154.914 29.0332C154.946 29.046 155.043 29.0868 155.139 29.3619L157.029 28.7067ZM154.478 27.5143C154.413 27.6033 154.337 27.6609 154.224 27.6999L154.879 29.5896C155.371 29.419 155.784 29.1165 156.092 28.695L154.478 27.5143ZM154.224 27.6999C154.125 27.7343 154.026 27.7391 153.891 27.6923L153.239 29.5829C153.776 29.7684 154.336 29.778 154.879 29.5896L154.224 27.6999ZM153.925 27.7048C153.919 27.7025 153.917 27.7018 153.908 27.6917C153.895 27.6773 153.862 27.6329 153.827 27.5308L151.937 28.1859C152.146 28.79 152.55 29.3176 153.205 29.5705L153.925 27.7048ZM153.827 27.5308C153.797 27.4465 153.801 27.4054 153.802 27.3934C153.803 27.3837 153.808 27.3585 153.842 27.3105L152.217 26.1446C151.773 26.7641 151.694 27.484 151.937 28.1859L153.827 27.5308ZM153.842 27.3105C153.957 27.1501 154.112 27.0296 154.345 26.949L153.689 25.0593C153.09 25.267 152.587 25.6288 152.217 26.1446L153.842 27.3105ZM154.345 26.949C154.698 26.8263 154.998 26.7742 155.25 26.7712L155.226 24.7714C154.719 24.7774 154.205 24.8807 153.689 25.0593L154.345 26.949ZM155.926 26.4967C156.985 25.4922 158.187 24.174 159.529 22.5529L157.989 21.2772C156.676 22.8631 155.53 24.1158 154.55 25.0459L155.926 26.4967ZM159.525 22.5582C160.603 21.2746 161.375 20.3839 161.85 19.873L160.385 18.5116C159.873 19.0625 159.073 19.9869 157.993 21.2718L159.525 22.5582ZM161.445 20.1371L163.202 19.5278L162.547 17.6382L160.79 18.2475L161.445 20.1371ZM161.882 18.7059L162.817 26.2562L164.802 26.0104L163.867 18.4601L161.882 18.7059ZM162.815 26.2384C162.908 27.1194 162.994 27.8882 163.072 28.5443L165.058 28.3081C164.981 27.6631 164.897 26.9033 164.804 26.0282L162.815 26.2384ZM163.072 28.5443C163.148 29.1841 163.235 29.7264 163.354 30.0698L165.244 29.4146C165.206 29.3045 165.137 28.9694 165.058 28.3081L163.072 28.5443ZM163.354 30.0698C163.538 30.601 163.863 31.1313 164.434 31.4256C165.016 31.7256 165.637 31.6701 166.173 31.4844L165.518 29.5947C165.409 29.6325 165.348 29.6372 165.327 29.6371C165.311 29.6371 165.325 29.635 165.35 29.6479C165.405 29.6764 165.335 29.677 165.244 29.4146L163.354 30.0698ZM166.173 31.4844C166.941 31.218 167.539 30.705 167.857 29.9446L166.012 29.1729C165.936 29.3533 165.808 29.4942 165.518 29.5947L166.173 31.4844ZM167.857 29.9446C168.119 29.3182 168.269 28.4025 168.358 27.3004L166.365 27.139C166.278 28.2148 166.143 28.8585 166.012 29.1729L167.857 29.9446ZM167.689 28.1645L168.88 27.7517L168.224 25.8621L167.034 26.2749L167.689 28.1645ZM167.552 26.8125C167.573 30.5917 166.476 32.3426 164.799 32.924L165.454 34.8136C168.388 33.7964 169.574 30.8394 169.552 26.8014L167.552 26.8125ZM164.799 32.924C163.867 33.2469 163.232 33.1919 162.779 32.9625L161.876 34.7474C162.962 35.2965 164.193 35.2507 165.454 34.8136L164.799 32.924ZM162.793 32.9698C162.253 32.686 161.878 32.2534 161.655 31.6113L159.766 32.2665C160.146 33.3629 160.849 34.2076 161.862 34.7401L162.793 32.9698ZM161.655 31.6113C161.576 31.3831 161.428 30.6129 161.221 29.1546C161.02 27.7456 160.777 25.7927 160.492 23.2917L158.505 23.5188C158.791 26.0266 159.036 28.0004 159.24 29.4359C159.437 30.8223 159.609 31.8144 159.766 32.2665L161.655 31.6113ZM158.714 22.7851C158.041 23.6354 157.213 24.5973 156.226 25.6717L157.699 27.0249C158.709 25.9249 159.572 24.9246 160.283 24.0254L158.714 22.7851ZM156.348 27.1373C156.839 27.5199 157.305 28.192 157.68 29.2745L159.57 28.6193C159.12 27.3209 158.477 26.2605 157.577 25.5593L156.348 27.1373ZM157.68 29.2745C157.93 29.9932 158.018 30.8664 157.905 31.9203L159.894 32.1339C160.031 30.8571 159.937 29.6768 159.57 28.6193L157.68 29.2745ZM157.906 31.9129C157.795 32.8797 157.435 33.8141 156.8 34.7242L158.44 35.869C159.247 34.7125 159.741 33.4672 159.893 32.1412L157.906 31.9129ZM156.795 34.732C156.233 35.5527 155.383 36.1887 154.17 36.6094L154.825 38.499C156.37 37.9632 157.602 37.0941 158.445 35.8613L156.795 34.732ZM169.579 31.1183L169.165 32.0287L169.177 32.034L169.579 31.1183ZM166.499 23.5178L167.499 23.4986L167.499 23.4986L166.499 23.5178ZM167.588 18.5997L168.485 19.0436L168.488 19.0362L167.588 18.5997ZM175.549 20.2214L176.514 20.4824L176.514 20.4824L175.549 20.2214ZM173.887 23.211L174.618 23.8933L174.623 23.888L174.627 23.8826L173.887 23.211ZM170.998 25.2285L170.608 24.3076L169.822 24.6404L170.028 25.4692L170.998 25.2285ZM176.633 25.1799L177.621 25.0272L177.18 22.1703L175.762 24.6892L176.633 25.1799ZM170.725 23.7992L169.732 23.9207L169.887 25.1832L171.077 24.7351L170.725 23.7992ZM172.492 22.3928L171.679 21.8098L171.671 21.8214L172.492 22.3928ZM173.423 20.1331L172.437 19.9628L172.436 19.972L173.423 20.1331ZM170.775 19.273L169.789 19.1071L169.788 19.1126L170.775 19.273ZM172.856 30.1302C171.64 30.5519 170.711 30.5228 169.981 30.2027L169.177 32.034C170.495 32.6127 171.969 32.5547 173.512 32.0199L172.856 30.1302ZM169.993 30.208C169.306 29.8957 168.661 29.172 168.173 27.764L166.283 28.4191C166.869 30.1101 167.792 31.4042 169.165 32.0287L169.993 30.208ZM168.173 27.764C167.763 26.5816 167.531 25.1653 167.499 23.4986L165.5 23.5371C165.535 25.3609 165.789 26.9938 166.283 28.4191L168.173 27.764ZM167.499 23.4986C167.469 21.9104 167.798 20.4302 168.485 19.0436L166.692 18.1558C165.86 19.8361 165.463 21.6347 165.5 23.5371L167.499 23.4986ZM168.488 19.0362C169.114 17.745 170.16 16.8298 171.71 16.2922L171.055 14.4026C169.053 15.0967 167.568 16.3497 166.689 18.1633L168.488 19.0362ZM171.71 16.2922C172.633 15.9722 173.219 15.9976 173.582 16.1441C173.913 16.2778 174.247 16.5896 174.499 17.315L176.389 16.6598C176.011 15.5712 175.354 14.7027 174.331 14.2896C173.34 13.8895 172.211 14.0019 171.055 14.4026L171.71 16.2922ZM174.499 17.315C174.799 18.1805 174.829 19.0533 174.584 19.9605L176.514 20.4824C176.863 19.194 176.822 17.9108 176.389 16.6598L174.499 17.315ZM174.584 19.9605C174.331 20.896 173.858 21.7538 173.146 22.5393L174.627 23.8826C175.538 22.8776 176.174 21.7424 176.514 20.4824L174.584 19.9605ZM173.156 22.5286C172.434 23.302 171.587 23.8934 170.608 24.3076L171.388 26.1494C172.624 25.6262 173.703 24.8726 174.618 23.8933L173.156 22.5286ZM170.028 25.4692C170.133 25.8934 170.222 26.2259 170.291 26.4261L172.181 25.7709C172.146 25.6688 172.076 25.4212 171.969 24.9878L170.028 25.4692ZM170.291 26.4261C170.595 27.3006 171.04 28.0735 171.726 28.5385C172.469 29.0418 173.319 29.0701 174.137 28.7866L173.482 26.897C173.128 27.0197 172.963 26.9605 172.848 26.8827C172.677 26.7666 172.422 26.4649 172.181 25.7709L170.291 26.4261ZM174.137 28.7866C174.836 28.5442 175.475 28.1128 176.06 27.5434L174.665 26.1105C174.237 26.5273 173.841 26.7725 173.482 26.897L174.137 28.7866ZM176.06 27.5434C176.634 26.9849 177.116 26.3601 177.504 25.6705L175.762 24.6892C175.469 25.2095 175.104 25.6828 174.665 26.1105L176.06 27.5434ZM175.645 25.3326C175.851 26.6657 175.678 27.6505 175.252 28.3788C174.829 29.103 174.076 29.7075 172.856 30.1302L173.512 32.0199C175.051 31.4861 176.253 30.6297 176.979 29.3888C177.702 28.1521 177.875 26.6676 177.621 25.0272L175.645 25.3326ZM171.077 24.7351C171.992 24.3906 172.739 23.7872 173.312 22.9642L171.671 21.8214C171.311 22.3379 170.88 22.6721 170.372 22.8633L171.077 24.7351ZM173.304 22.9758C173.88 22.1728 174.25 21.2749 174.41 20.2942L172.436 19.972C172.325 20.6517 172.073 21.2602 171.679 21.8098L173.304 22.9758ZM174.408 20.3034C174.583 19.2912 174.514 18.304 174.186 17.3599L172.297 18.0151C172.507 18.6205 172.558 19.2637 172.437 19.9628L174.408 20.3034ZM174.186 17.3599C174.029 16.9072 173.793 16.4314 173.398 16.1057C172.931 15.7202 172.352 15.6358 171.802 15.8262L172.458 17.7159C172.444 17.7205 172.385 17.7368 172.299 17.7223C172.211 17.7075 172.152 17.67 172.126 17.6489C172.106 17.6327 172.122 17.6394 172.16 17.7036C172.198 17.7667 172.245 17.8665 172.297 18.0151L174.186 17.3599ZM171.802 15.8262C171.163 16.048 170.718 16.5347 170.416 17.0923C170.117 17.6436 169.919 18.3311 169.789 19.1071L171.761 19.439C171.872 18.7763 172.021 18.3275 172.174 18.0448C172.324 17.7684 172.436 17.7234 172.458 17.7159L171.802 15.8262ZM169.788 19.1126C169.541 20.6302 169.526 22.2346 169.732 23.9207L171.717 23.6777C171.531 22.1554 171.549 20.7424 171.762 19.4335L169.788 19.1126Z" fill="white"/>
</g>
<g filter="url(#filter1_d_17_12)">
<path d="M78.811 72.7603L80.6349 78.5255C81.5809 78.2262 81.8948 77.5738 81.5767 76.5683L80.7814 74.0543C80.4609 73.0413 80.4447 72.4073 80.7327 72.1523L85.079 70.7773C84.897 71.3675 84.9556 72.1356 85.2549 73.0816L85.9088 75.1486C86.1374 75.8711 86.0329 76.5638 85.5952 77.2266C85.4358 77.4738 85.0615 77.8708 84.4725 78.4176C84.0939 78.775 83.6277 79.0496 83.0737 79.2412C83.3486 79.2034 83.8753 79.172 84.654 79.1469C86.3514 79.1507 87.3945 79.7671 87.7834 80.9961L88.6069 83.5994C88.9086 84.5528 89.3036 85.2186 89.7919 85.5967L85.4457 86.9717C84.9667 86.6234 84.6153 86.0954 84.3915 85.3878L83.4017 82.2594C83.0836 81.2538 82.4441 80.903 81.4832 81.207L83.5016 87.5868L79.0436 88.9971L74.353 74.1706L78.811 72.7603ZM99.9735 78.0737C100.452 79.5858 100.447 80.7223 99.9583 81.4832C99.4748 82.2343 98.1307 82.9587 95.9259 83.6562L90.7528 85.2927L86.0622 70.4662L91.3917 68.7802C93.2167 68.2028 94.5672 68.1074 95.4433 68.494C96.3269 68.8782 96.9997 69.8002 97.4615 71.2602C97.9917 72.9361 97.4219 74.1652 95.752 74.9476C96.7078 74.8091 97.536 74.9404 98.2365 75.3415C98.9421 75.7328 99.4292 76.3531 99.6978 77.2022L99.9735 78.0737ZM92.2852 74.5571C92.9705 74.3403 93.3605 74.1227 93.4553 73.9042C93.5575 73.6834 93.5285 73.3198 93.3683 72.8133C93.2339 72.3887 93.0552 72.1216 92.832 72.0119C92.6089 71.9022 92.1733 71.9499 91.5252 72.1549L92.2852 74.5571ZM95.2629 78.802L95.1038 78.2992C94.9011 77.6586 94.6894 77.2872 94.4686 77.185C94.2454 77.0753 93.8098 77.123 93.1618 77.328L94.247 80.7581C94.8503 80.5672 95.2217 80.3555 95.3612 80.1229C95.4983 79.8828 95.4655 79.4425 95.2629 78.802ZM103.689 71.2075L99.4543 72.5472L99.1397 71.5528C98.7768 70.4057 98.6279 69.4818 98.693 68.7811C98.7632 68.0706 99.1214 67.3509 99.7676 66.622C100.414 65.8932 101.374 65.3273 102.647 64.9243C104.174 64.4412 105.411 64.349 106.358 64.6477C107.302 64.9389 107.978 65.4546 108.384 66.1946C108.788 66.9273 109.377 68.5189 110.152 70.9695L112.507 78.4107L108.116 79.7998L107.698 78.4814C107.59 79.0974 107.359 79.609 107.004 80.0162C106.655 80.4136 106.178 80.7077 105.575 80.8986C104.785 81.1484 103.989 81.1584 103.187 80.9287C102.391 80.6891 101.755 79.8208 101.282 78.3236L100.896 77.1057C100.545 75.9959 100.481 75.1845 100.704 74.6715C100.927 74.1585 101.646 73.4147 102.862 72.4401C104.16 71.3902 104.83 70.7482 104.871 70.5141C104.911 70.28 104.834 69.8538 104.638 69.2355C104.393 68.4609 104.175 67.977 103.982 67.7838C103.795 67.5807 103.567 67.5217 103.299 67.6065C102.994 67.7031 102.836 67.8638 102.825 68.0884C102.812 68.3057 102.936 68.8277 103.197 69.6545L103.689 71.2075ZM105.762 72.7885C105.207 73.546 104.926 74.1223 104.92 74.5176C104.922 74.9104 105.028 75.4421 105.241 76.1124C105.483 76.8797 105.688 77.3597 105.856 77.5525C106.031 77.743 106.267 77.7911 106.565 77.6968C106.848 77.6073 107.004 77.4639 107.031 77.2666C107.064 77.0596 106.963 76.5836 106.727 75.8388L105.762 72.7885ZM113.961 61.6401L114.296 62.972C114.531 62.3159 114.85 61.7809 115.251 61.3671C115.653 60.9532 116.141 60.6555 116.714 60.4741C117.414 60.2526 118.078 60.2516 118.704 60.4713C119.336 60.6811 119.793 61.0118 120.075 61.4634C120.358 61.9149 120.685 62.7291 121.057 63.906L123.033 70.1517C123.46 71.4999 123.682 72.4867 123.699 73.1121C123.722 73.7277 123.538 74.2857 123.147 74.7862C122.762 75.2769 122.219 75.6331 121.519 75.8546C120.96 76.0313 120.401 76.0647 119.842 75.9548C119.283 75.845 118.724 75.5955 118.167 75.2064L119.242 78.603L114.728 80.031L109.369 63.0928L113.961 61.6401ZM116.61 65.5463C116.321 64.6301 116.111 64.0858 115.983 63.9134C115.855 63.7409 115.638 63.703 115.333 63.7996C115.035 63.8939 114.876 64.0669 114.858 64.3186C114.846 64.568 114.976 65.121 115.247 65.9776L117.191 72.1227C117.474 73.0165 117.696 73.561 117.856 73.7562C118.016 73.9514 118.245 74.0019 118.543 73.9076C118.833 73.8157 118.98 73.6586 118.984 73.4363C118.992 73.2041 118.871 72.6933 118.622 71.9037L116.61 65.5463ZM130.195 56.5041L131.178 59.6102L128.597 60.4267L132.305 72.1471L127.802 73.5716L124.094 61.8512L121.502 62.6713L120.52 59.5652L130.195 56.5041ZM136.962 60.6811L132.727 62.0208L132.413 61.0264C132.05 59.8793 131.901 58.9554 131.966 58.2547C132.036 57.5442 132.394 56.8245 133.041 56.0956C133.687 55.3668 134.647 54.8009 135.921 54.3979C137.447 53.9148 138.684 53.8226 139.631 54.1213C140.575 54.4125 141.251 54.9282 141.657 55.6683C142.061 56.4009 142.65 57.9925 143.425 60.4431L145.78 67.8843L141.389 69.2734L140.972 67.955C140.863 68.5711 140.632 69.0827 140.277 69.4898C139.928 69.8872 139.451 70.1814 138.848 70.3722C138.058 70.622 137.263 70.632 136.461 70.4023C135.664 70.1627 135.028 69.2944 134.555 67.7972L134.169 66.5794C133.818 65.4695 133.754 64.6581 133.977 64.1451C134.2 63.6321 134.919 62.8883 136.135 61.9137C137.433 60.8638 138.103 60.2218 138.144 59.9877C138.184 59.7536 138.107 59.3274 137.911 58.7092C137.666 57.9345 137.448 57.4506 137.255 57.2574C137.068 57.0544 136.841 56.9953 136.572 57.0801C136.267 57.1767 136.109 57.3374 136.098 57.562C136.085 57.7793 136.209 58.3013 136.471 59.1281L136.962 60.6811ZM139.035 62.2622C138.48 63.0196 138.199 63.5959 138.193 63.9912C138.195 64.3841 138.302 64.9157 138.514 65.5861C138.756 66.3533 138.961 66.8333 139.129 67.0261C139.304 67.2166 139.54 67.2647 139.838 67.1704C140.121 67.0809 140.277 66.9375 140.305 66.7402C140.337 66.5332 140.236 66.0572 140 65.3124L139.035 62.2622ZM154.193 65.2226L150.485 53.5022L148.887 54.0077L151.255 61.4935C151.687 62.8566 151.839 63.8819 151.712 64.5693C151.583 65.2493 151.203 65.771 150.573 66.1344C149.947 66.488 148.867 66.9075 147.333 67.3929L146.595 67.6262L145.828 65.2017C146.399 65.0128 146.772 64.8172 146.945 64.6147C147.117 64.4049 147.07 63.8828 146.806 63.0486L143.413 52.3225L153.983 48.9787L158.673 63.8052L154.193 65.2226ZM169.344 55.7708C169.773 57.1265 169.921 58.1492 169.787 58.839C169.66 59.5264 169.281 60.0518 168.651 60.4152C168.017 60.7712 166.934 61.1919 165.399 61.6773L160.182 63.328L155.491 48.5015L159.971 47.0841L161.534 52.0225L162.271 51.7892C163.709 51.3344 164.808 51.0808 165.57 51.0282C166.332 50.9757 166.972 51.1869 167.491 51.6618C168.01 52.1368 168.469 53.0037 168.867 54.2625L169.344 55.7708ZM164.68 56.6443L164.492 56.0522C164.25 55.2849 164.024 54.8442 163.816 54.7298C163.615 54.613 163.154 54.6566 162.431 54.8605L163.676 58.7933C164.272 58.6048 164.65 58.4031 164.812 58.1881C164.978 57.9634 164.934 57.4488 164.68 56.6443ZM176.539 58.1532L172.058 59.5706L167.368 44.7441L171.848 43.3267L176.539 58.1532Z" fill="#C71800"/>
</g>
<defs>
<filter id="filter0_d_17_12" x="28.7681" y="7.4353" width="153.191" height="82.3183" filterUnits="userSpaceOnUse" color-interpolation-filters="sRGB">
<feFlood flood-opacity="0" result="BackgroundImageFix"/>
<feColorMatrix in="SourceAlpha" type="matrix" values="0 0 0 0 0 0 0 0 0 0 0 0 0 0 0 0 0 0 127 0" result="hardAlpha"/>
<feOffset dx="-3" dy="4"/>
<feGaussianBlur stdDeviation="1"/>
<feComposite in2="hardAlpha" operator="out"/>
<feColorMatrix type="matrix" values="0 0 0 0 0.121569 0 0 0 0 0.14902 0 0 0 0 0.352941 0 0 0 0.95 0"/>
<feBlend mode="normal" in2="BackgroundImageFix" result="effect1_dropShadow_17_12"/>
<feBlend mode="normal" in="SourceGraphic" in2="effect1_dropShadow_17_12" result="shape"/>
</filter>
<filter id="filter1_d_17_12" x="70.2681" y="43.0585" width="106.939" height="53.0503" filterUnits="userSpaceOnUse" color-interpolation-filters="sRGB">
<feFlood flood-opacity="0" result="BackgroundImageFix"/>
<feColorMatrix in="SourceAlpha" type="matrix" values="0 0 0 0 0 0 0 0 0 0 0 0 0 0 0 0 0 0 127 0" result="hardAlpha"/>
<feOffset dx="-2" dy="3"/>
<feGaussianBlur stdDeviation="1"/>
<feComposite in2="hardAlpha" operator="out"/>
<feColorMatrix type="matrix" values="0 0 0 0 0.121569 0 0 0 0 0.14902 0 0 0 0 0.352941 0 0 0 1 0"/>
<feBlend mode="normal" in2="BackgroundImageFix" result="effect1_dropShadow_17_12"/>
<feBlend mode="normal" in="SourceGraphic" in2="effect1_dropShadow_17_12" result="shape"/>
</filter>
</defs>
</svg>
